<svg width="280" height="251" viewBox="0 0 280 251" fill="none" xmlns="http://www.w3.org/2000/svg">
<mask id="mask0_164_12274" style="mask-type:alpha" maskUnits="userSpaceOnUse" x="0" y="0" width="280" height="251">
<rect width="280" height="251" rx="31" fill="#D9D9D9"/>
</mask>
<g mask="url(#mask0_164_12274)">
<path d="M172.423 68.2648L172.058 68.0574C171.307 67.6325 170.543 67.2278 169.768 66.8433C166.305 65.1236 162.612 63.8044 158.734 62.933C156.896 62.5197 155.018 62.2072 153.101 61.9998C155.601 62.6032 157.88 63.3305 159.92 64.1673C185.078 74.5024 173.423 101.626 84.8926 120.115C77.5762 121.643 76.3702 122.089 75.4478 123.042C75.1478 123.352 75.0036 123.778 75.0005 124.209C75.1944 130.556 75.4564 132.444 76.3349 137.203C76.4002 137.56 76.4698 137.933 76.5429 138.325L76.6113 138.692C77.1036 140.699 77.9013 143.314 78.5173 145.333C78.5391 145.404 78.6598 145.423 78.7158 145.374C79.449 144.725 82.8274 143.693 88.851 142.277C190.334 118.414 203.312 87.1837 172.423 68.2648Z" fill="white" fill-opacity="0.1"/>
<path d="M158.381 81.1935C148.836 91.5186 120.983 102.273 87.4237 108.591C82.0288 109.607 78.285 111.001 76.8285 111.598C76.5511 111.711 76.3726 110.914 76.4715 110.631C76.6026 110.256 76.5736 110.377 76.6777 109.993L78.6889 102.587L78.6901 102.584L78.693 102.577C78.7461 102.443 78.798 102.312 78.8485 102.183C81.0108 96.7337 81.1569 96.4067 82.8937 93.218L83.4091 92.311C83.5891 91.9942 83.8119 91.696 84.1279 91.5148C85.2459 90.8739 87.6775 90.3709 95.3591 89.0774C142.809 81.0833 156.567 66.0948 141.521 62.8094C141.206 62.7406 141.199 62.2464 141.52 62.2156C144.787 62.1191 147.852 62.4504 150.566 63.1301C160.682 65.6678 165.901 73.0591 158.381 81.1935Z" fill="white" fill-opacity="0.1"/>
<path d="M137.631 62.867C143.553 65.6481 136.687 70.182 128.914 73.2497C118.082 77.5243 105.631 79.5176 98.9421 80.5877C92.5494 81.6102 90.4639 82.0193 89.8749 82.5838C91.5783 80.6798 93.9258 78.207 95.7581 76.424C95.8261 76.3663 95.8898 76.3131 95.9549 76.2569C99.7554 73.0236 100.41 72.4792 104.029 70.074C104.126 70.0117 104.229 69.959 104.339 69.9228C104.951 69.7206 105.755 69.6154 109.695 69.1796L109.715 69.1774C115.803 68.5033 131.782 66.734 137.192 62.9082C137.322 62.8162 137.487 62.7993 137.631 62.867Z" fill="white" fill-opacity="0.1"/>
<path d="M197.164 93.5038C200.062 99.3382 200.177 99.5706 201.438 103.143C209.373 131.442 171.97 156.632 101.383 170.526C100.425 170.714 99.5941 170.887 98.8892 171.044C97.2156 171.418 95.0518 170.989 93.8439 169.771C92.8198 168.74 91.7823 167.669 90.9411 166.745L90.9303 166.732C86.9722 161.85 86.732 161.554 84.6425 158.235L83.6669 156.573C83.2929 155.936 83.2953 155.042 83.9797 154.765C84.6778 154.483 86.0426 154.187 89.2575 153.489L89.2709 153.486C153.948 139.447 210.984 111.658 189.462 82.6264C189.456 82.6183 189.452 82.6089 189.45 82.5992C189.432 82.5239 189.528 82.4731 189.579 82.5313C190.222 83.2651 190.834 83.9904 191.349 84.6603L191.369 84.6879C194.442 88.9418 195.11 89.8671 196.332 92.0156C196.577 92.4433 196.843 92.9215 197.154 93.4846L197.164 93.5038Z" fill="white" fill-opacity="0.1"/>
<path d="M204.584 116.967C205.147 125.557 201.926 133.643 194.986 141.139C191.038 145.404 185.887 149.477 179.542 153.343C167.557 160.645 151.785 166.008 148.744 167.009C141.323 169.452 133.696 171.082 126.07 172.711C118.899 174.243 111.729 175.774 104.73 177.983C104.458 178.069 104.41 178.429 104.651 178.581C105.319 179.002 106.07 179.452 106.778 179.877C107.187 180.122 107.583 180.36 107.939 180.577C111.481 182.51 112.309 182.862 116.287 184.545C117.485 184.992 119.047 185.532 120.346 185.967C120.692 186.083 121.011 186.132 121.374 186.093C127.568 185.433 188.386 177.65 201.619 144.937C202.422 142.283 203.33 138.695 203.939 135.991C204.689 131.688 204.707 131.27 204.996 124.478L204.998 124.426C205.023 122.61 204.843 120.309 204.687 118.311C204.65 117.843 204.615 117.391 204.584 116.967Z" fill="white" fill-opacity="0.1"/>
<path d="M133.538 187.714C144.484 186.429 171.218 181.197 187.733 166.714C190.716 164.099 193.365 161.183 195.527 157.933C195.454 158.044 195.379 158.157 195.303 158.271C193.958 160.299 192.257 162.862 190.781 164.677L190.78 164.679C186.795 169.277 186.469 169.653 183.406 172.443C179.18 175.966 178.531 176.506 174.569 179.082L172.207 180.492C168.702 182.36 159.388 187.323 145.823 188.742L145.327 188.785C143.983 188.879 142.985 188.938 142.332 188.961C141.271 188.987 140.326 189 139.498 189C138.249 188.976 137.309 188.948 136.678 188.916L136.632 188.913C134.776 188.798 134.696 188.793 133.735 188.7L133.709 188.697C131.681 188.477 131.596 188.468 130.515 188.31L128.848 188.043C129.419 188.092 131.082 188.002 133.538 187.714Z" fill="white" fill-opacity="0.1"/>
<path d="M78.8441 144.69C78.2546 142.756 77.5496 140.416 77.1003 138.587L77.0345 138.234L76.5429 138.325L77.0345 138.234C76.9613 137.841 76.8919 137.469 76.8267 137.113L76.8266 137.112C75.9531 132.381 75.6937 130.517 75.5006 124.204C75.5048 123.88 75.614 123.589 75.807 123.39C76.1912 122.993 76.6396 122.677 77.9234 122.271C79.2266 121.858 81.3321 121.369 84.9949 120.604C107.147 115.978 124.505 110.808 137.689 105.49C150.867 100.174 159.903 94.6987 165.385 89.4445C170.863 84.1952 172.869 79.0846 171.745 74.549C170.655 70.1499 166.667 66.5014 160.586 63.9042C163.712 64.7436 166.707 65.8815 169.546 67.2911C170.312 67.6716 171.068 68.0719 171.811 68.4921C171.811 68.4922 171.811 68.4924 171.812 68.4926L172.168 68.6954C179.836 73.3931 184.689 78.8007 186.183 84.58C187.669 90.3285 185.867 96.5837 179.908 103.079C173.941 109.583 163.841 116.281 148.865 122.848C133.896 129.411 114.088 135.829 88.7366 141.79C88.7365 141.79 88.7365 141.79 88.7365 141.79L88.851 142.277C83.3948 143.559 80.109 144.527 78.9934 145.18L78.8441 144.69ZM87.3311 108.1L87.3311 108.1C82.2537 109.056 78.6234 110.345 76.9605 111.005C76.9531 110.965 76.948 110.924 76.9456 110.886C76.9413 110.819 76.947 110.789 76.9463 110.788C76.9463 110.788 76.9462 110.789 76.9461 110.789C76.9803 110.691 77.0035 110.628 77.0216 110.578C77.0688 110.449 77.0811 110.416 77.1602 110.124L79.164 102.745C79.2148 102.617 79.2648 102.491 79.3136 102.367C81.4712 96.929 81.6097 96.6208 83.3306 93.4612L83.8438 92.558C84.0079 92.2693 84.176 92.0636 84.3766 91.9486C84.8611 91.6708 85.6789 91.3973 87.3873 91.0296C89.0824 90.6648 91.5998 90.2175 95.4421 89.5704L95.4422 89.5704C119.191 85.5694 134.579 79.8087 142.159 74.5894C144.058 73.2824 145.487 71.9957 146.435 70.7612C147.38 69.5299 147.877 68.3107 147.828 67.1544C147.778 65.9785 147.168 64.9647 146.106 64.1557C145.339 63.5707 144.326 63.0848 143.088 62.702C145.73 62.7354 148.211 63.0558 150.444 63.6152C155.434 64.8668 159.106 67.2908 160.642 70.291C162.148 73.2323 161.677 76.8913 158.014 80.8541L158.381 81.1935L158.014 80.8541C153.323 85.9282 144.065 91.1647 131.728 95.9284C119.41 100.684 104.087 104.945 87.3311 108.1ZM92.1267 81.2687C91.9596 81.3048 91.8018 81.3402 91.6528 81.3752C93.1004 79.8124 94.7391 78.1138 96.0943 76.7944C96.108 76.7828 96.1217 76.7712 96.1356 76.7595C96.1832 76.7193 96.2318 76.6783 96.2801 76.6366C100.069 73.413 100.708 72.8811 104.302 70.4929C104.372 70.4488 104.436 70.4174 104.496 70.3975C105.044 70.2166 105.774 70.1164 109.75 69.6765L109.75 69.6765L109.77 69.6744L109.715 69.1774L109.77 69.6744L109.773 69.674C112.818 69.3369 118.349 68.7245 123.799 67.7164C126.525 67.2121 129.239 66.6073 131.618 65.8854C133.971 65.1711 136.035 64.331 137.453 63.336C138.851 64.0002 139.316 64.6834 139.362 65.2702C139.411 65.8988 139.011 66.6813 138.062 67.5897C136.189 69.3828 132.608 71.2543 128.73 72.7846C117.957 77.0363 105.558 79.0229 98.8631 80.0939C95.6697 80.6048 93.5364 80.9647 92.1267 81.2687ZM196.716 93.7261L196.716 93.7263C199.607 99.5464 199.716 99.7653 200.961 103.294C204.833 117.132 197.676 130.306 180.577 141.821C163.475 153.339 136.552 163.093 101.287 170.035L101.383 170.526L101.287 170.035C100.326 170.224 99.4905 170.398 98.7803 170.556C97.2331 170.902 95.2586 170.487 94.1988 169.419C93.1805 168.393 92.1528 167.333 91.3205 166.419L91.3187 166.417L91.3186 166.417L91.3187 166.417L91.318 166.416C87.3676 161.544 87.1395 161.263 85.0698 157.975L84.098 156.32C83.9577 156.081 83.898 155.806 83.923 155.592C83.9461 155.394 84.0302 155.284 84.1675 155.228C84.4775 155.103 84.9596 154.966 85.7899 154.77C86.6146 154.574 87.7539 154.327 89.3635 153.978L89.3639 153.978L89.377 153.975C121.739 146.95 152.232 136.478 171.957 124.102C181.813 117.918 189.04 111.222 192.432 104.189C194.132 100.664 194.871 97.0491 194.486 93.3785C194.296 91.5653 193.833 89.7465 193.083 87.9255C194.459 89.8572 195.037 90.7504 195.897 92.2627L195.898 92.2638C196.139 92.6858 196.402 93.1584 196.711 93.7169L196.716 93.7261ZM91.1638 166.542L91.1635 166.543L90.9332 166.729L91.1638 166.542ZM158.702 182.639C168.774 179.374 179.57 174.468 187.875 167.253C186.063 169.306 185.3 170.042 183.077 172.066C178.87 175.573 178.235 176.102 174.304 178.658L171.961 180.057C168.465 181.92 159.227 186.837 145.775 188.244C145.774 188.244 145.772 188.245 145.771 188.245L145.292 188.286C145.29 188.286 145.289 188.287 145.288 188.287C143.949 188.38 142.961 188.438 142.317 188.461C141.262 188.487 140.324 188.5 139.503 188.5C138.259 188.476 137.328 188.448 136.706 188.417C136.705 188.417 136.704 188.417 136.703 188.417L136.663 188.414L136.663 188.414C134.81 188.299 134.735 188.295 133.786 188.203C133.785 188.203 133.784 188.203 133.783 188.202L133.763 188.2C133.763 188.2 133.763 188.2 133.762 188.2C133.748 188.199 133.734 188.197 133.72 188.196C139.237 187.54 148.624 185.905 158.702 182.639ZM195.353 141.479C200.146 136.302 203.199 130.826 204.47 125.085C204.207 131.264 204.168 131.769 203.448 135.892C202.843 138.581 201.943 142.137 201.147 144.771C194.611 160.896 176.303 170.953 158.693 177.063C141.111 183.162 124.4 185.268 121.321 185.596C121.043 185.626 120.798 185.591 120.505 185.493C119.212 185.059 117.661 184.523 116.472 184.08C112.515 182.406 111.699 182.06 108.19 180.144C107.834 179.927 107.44 179.691 107.035 179.448C106.434 179.088 105.807 178.711 105.226 178.351C112.089 176.209 119.118 174.707 126.174 173.2L126.187 173.197C133.805 171.57 141.454 169.936 148.9 167.484C151.943 166.482 167.764 161.104 179.802 153.77C186.176 149.886 191.366 145.785 195.353 141.479Z" stroke="white" stroke-opacity="0.2"/>
<path d="M172.422 68.2648L172.057 68.0574C171.306 67.6325 170.542 67.2278 169.768 66.8433C166.305 65.1236 162.611 63.8044 158.734 62.933C156.896 62.5197 155.017 62.2072 153.101 61.9998C155.6 62.6032 157.88 63.3305 159.919 64.1673C185.077 74.5024 173.422 101.626 84.8922 120.115C76.411 121.886 76.1405 122.204 75.0049 123.542L75 124.209C75.1939 130.556 75.4559 132.444 76.3344 137.203C76.3997 137.56 76.4693 137.933 76.5424 138.325L76.6108 138.692C77.1031 140.699 77.9008 143.314 78.5168 145.333L78.5806 145.542C78.8536 144.91 82.2769 143.822 88.8505 142.277C190.334 118.414 203.311 87.1837 172.422 68.2648Z" stroke="#BE7D51"/>
<path d="M137.63 62.867C143.553 65.6481 136.687 70.182 128.913 73.2497C118.082 77.5243 105.631 79.5176 98.9416 80.5877C92.5489 81.6102 90.4634 82.0193 89.8744 82.5838C91.5778 80.6798 93.9253 78.207 95.7576 76.424C95.8256 76.3663 95.8893 76.3131 95.9544 76.2569C99.755 73.0236 100.409 72.4792 104.029 70.074L104.175 69.9803C104.831 69.737 105.398 69.6549 109.695 69.1796L109.714 69.1774C115.881 68.4946 132.195 66.6882 137.396 62.759C137.477 62.795 137.554 62.831 137.63 62.867Z" stroke="#BE7D51"/>
<path d="M204.583 116.967C205.146 125.557 201.926 133.643 194.985 141.139C191.037 145.404 185.886 149.477 179.542 153.343C167.557 160.645 151.784 166.008 148.743 167.009C141.323 169.452 133.696 171.082 126.069 172.711C118.668 174.292 111.267 175.873 104.054 178.198C104.242 178.322 104.442 178.45 104.651 178.581C105.318 179.002 106.069 179.452 106.777 179.877C107.187 180.122 107.582 180.36 107.939 180.577C111.48 182.51 112.308 182.862 116.287 184.545C117.65 185.054 119.487 185.683 120.869 186.141C121.513 186.134 187.739 179.248 201.618 144.937C202.422 142.283 203.329 138.695 203.938 135.991C204.689 131.688 204.707 131.27 204.995 124.478L204.998 124.426C205.022 122.61 204.842 120.309 204.686 118.311C204.65 117.843 204.614 117.391 204.583 116.967Z" stroke="#BE7D51"/>
<circle cx="140.001" cy="125" r="83.8871" stroke="#BE7D51" stroke-opacity="0.2"/>
<circle cx="140.001" cy="125" r="104.5" stroke="#BE7D51" stroke-opacity="0.05"/>
</g>
</svg>
