<svg width="280" height="251" viewBox="0 0 280 251" fill="none" xmlns="http://www.w3.org/2000/svg">
<mask id="mask0_164_12264" style="mask-type:alpha" maskUnits="userSpaceOnUse" x="0" y="0" width="280" height="251">
<rect width="280" height="251" rx="31" fill="#D9D9D9"/>
</mask>
<g mask="url(#mask0_164_12264)">
<g filter="url(#filter0_d_164_12264)">
<rect x="43" y="49" width="193.848" height="32.9954" fill="white" fill-opacity="0.1" shape-rendering="crispEdges"/>
<rect x="42.5" y="48.5" width="194.848" height="33.9954" stroke="#BE7D51" shape-rendering="crispEdges"/>
</g>
<path d="M187.41 69.4405C187.928 69.4405 188.4 69.3616 188.825 69.2037C189.25 69.0458 189.614 68.8202 189.919 68.527C190.223 68.23 190.456 67.8767 190.618 67.4669C190.784 67.0571 190.866 66.6023 190.866 66.1023V65.1099H187.567V66.0008H189.851V66.1982C189.851 66.6568 189.75 67.059 189.547 67.4049C189.344 67.7507 189.058 68.0214 188.69 68.2169C188.325 68.4086 187.9 68.5044 187.415 68.5044C187.005 68.5044 186.637 68.4274 186.31 68.2733C185.983 68.1191 185.703 67.8992 185.47 67.6135C185.241 67.324 185.064 66.9744 184.94 66.5647C184.819 66.1549 184.759 65.6944 184.759 65.1832V65.1719C184.759 64.499 184.868 63.9144 185.086 63.4182C185.304 62.922 185.611 62.5385 186.006 62.2679C186.404 61.9934 186.872 61.8562 187.41 61.8562C188.015 61.8562 188.519 61.9953 188.921 62.2735C189.323 62.5517 189.607 62.9539 189.772 63.4802L189.789 63.5366H190.815L190.804 63.4802C190.699 62.9652 190.492 62.516 190.184 62.1325C189.879 61.7491 189.49 61.4521 189.017 61.2416C188.547 61.0273 188.011 60.9202 187.41 60.9202C186.669 60.9202 186.021 61.0969 185.464 61.4502C184.912 61.7998 184.483 62.2942 184.179 62.9333C183.874 63.5686 183.722 64.3148 183.722 65.1719V65.1832C183.722 65.8335 183.808 66.42 183.981 66.9425C184.154 67.465 184.4 67.9124 184.72 68.2845C185.043 68.6567 185.43 68.9424 185.881 69.1416C186.336 69.3409 186.846 69.4405 187.41 69.4405ZM194.21 69.3559C194.484 69.3559 194.736 69.3183 194.966 69.2431C195.195 69.1642 195.4 69.0495 195.58 68.8992C195.764 68.7488 195.921 68.5665 196.048 68.3522H196.139V69.2488H197.12V65.0873C197.12 64.6663 197.029 64.3054 196.849 64.0046C196.672 63.7001 196.411 63.4671 196.065 63.3054C195.723 63.1438 195.304 63.0629 194.808 63.0629C194.375 63.0629 193.99 63.1306 193.652 63.2659C193.313 63.3975 193.037 63.5836 192.823 63.8242C192.612 64.061 192.481 64.3392 192.428 64.6587L192.423 64.6926H193.404L193.409 64.6757C193.488 64.4388 193.644 64.2565 193.877 64.1287C194.11 63.9971 194.409 63.9313 194.774 63.9313C195.229 63.9313 195.569 64.031 195.795 64.2302C196.024 64.4257 196.139 64.7114 196.139 65.0873V66.982C196.139 67.2714 196.063 67.5308 195.913 67.7601C195.766 67.9894 195.563 68.1718 195.304 68.3071C195.045 68.4387 194.748 68.5044 194.413 68.5044C194.06 68.5044 193.766 68.4199 193.533 68.2507C193.3 68.0778 193.184 67.8372 193.184 67.5289V67.5176C193.184 67.2169 193.289 66.9838 193.5 66.8184C193.714 66.653 194.052 66.5572 194.515 66.5308L196.629 66.3955V65.6117L194.396 65.747C193.926 65.7734 193.526 65.8598 193.195 66.0064C192.864 66.153 192.612 66.356 192.439 66.6154C192.267 66.8711 192.18 67.1793 192.18 67.5402V67.5515C192.18 67.9199 192.268 68.2394 192.445 68.5101C192.626 68.7808 192.868 68.9894 193.173 69.136C193.481 69.2826 193.827 69.3559 194.21 69.3559ZM200.999 69.3559C201.462 69.3559 201.875 69.2789 202.24 69.1247C202.608 68.9706 202.9 68.7563 203.114 68.4819C203.328 68.2037 203.435 67.8842 203.435 67.5233V67.512C203.435 67.0759 203.294 66.7282 203.012 66.4688C202.734 66.2094 202.309 66.0102 201.738 65.8711L200.802 65.6455C200.565 65.5854 200.371 65.5159 200.221 65.4369C200.071 65.358 199.96 65.2659 199.888 65.1606C199.817 65.0553 199.781 64.9351 199.781 64.7997V64.7884C199.781 64.608 199.836 64.4501 199.945 64.3148C200.054 64.1794 200.202 64.0742 200.39 63.999C200.578 63.9201 200.792 63.8806 201.033 63.8806C201.401 63.8806 201.7 63.9558 201.93 64.1061C202.159 64.2565 202.306 64.452 202.369 64.6926H203.334C203.289 64.3618 203.165 64.0742 202.962 63.8298C202.762 63.5855 202.497 63.3975 202.166 63.2659C201.839 63.1306 201.464 63.0629 201.039 63.0629C200.61 63.0629 200.225 63.14 199.883 63.2941C199.541 63.4483 199.27 63.6588 199.071 63.9257C198.875 64.1926 198.778 64.4952 198.778 64.8336V64.8392C198.778 65.1287 198.836 65.3805 198.952 65.5948C199.069 65.8053 199.249 65.9839 199.494 66.1305C199.738 66.2733 200.05 66.3899 200.43 66.4801L201.371 66.7057C201.747 66.7959 202.018 66.9143 202.183 67.0609C202.349 67.2038 202.432 67.3786 202.432 67.5853V67.5966C202.432 67.7808 202.371 67.9443 202.251 68.0872C202.131 68.2263 201.965 68.3372 201.755 68.4199C201.548 68.4988 201.307 68.5383 201.033 68.5383C200.646 68.5383 200.332 68.4612 200.091 68.3071C199.851 68.153 199.689 67.95 199.606 67.6981H198.603C198.64 68.0327 198.762 68.324 198.969 68.5721C199.18 68.8202 199.458 69.0138 199.804 69.1529C200.15 69.2883 200.548 69.3559 200.999 69.3559ZM205.014 69.2488H205.995V60.7567H205.014V69.2488ZM210.36 69.3559C210.717 69.3559 211.038 69.3108 211.324 69.2206C211.613 69.1266 211.863 69.0025 212.074 68.8484C212.284 68.6905 212.456 68.5157 212.587 68.324C212.722 68.1285 212.816 67.9274 212.869 67.7206L212.88 67.6755H211.899L211.877 67.7263C211.824 67.8466 211.732 67.965 211.6 68.0815C211.469 68.1981 211.301 68.2939 211.098 68.3691C210.895 68.4443 210.657 68.4819 210.382 68.4819C210.014 68.4819 209.694 68.4011 209.424 68.2394C209.153 68.074 208.944 67.8391 208.798 67.5346C208.651 67.2263 208.578 66.856 208.578 66.4237V66.0346C208.578 65.5798 208.653 65.1963 208.803 64.8843C208.954 64.5723 209.157 64.3373 209.412 64.1794C209.672 64.0178 209.965 63.937 210.292 63.937C210.619 63.937 210.909 64.014 211.16 64.1682C211.412 64.3185 211.61 64.5478 211.753 64.8561C211.895 65.1644 211.967 65.5572 211.967 66.0346V66.4237L212.452 65.7076H208.082V66.4914H212.954V66.1079C212.954 65.5027 212.846 64.9726 212.632 64.5178C212.422 64.0591 212.117 63.702 211.719 63.4464C211.324 63.1908 210.85 63.0629 210.298 63.0629C209.749 63.0629 209.27 63.1964 208.86 63.4633C208.45 63.7302 208.132 64.1005 207.907 64.5742C207.685 65.0478 207.574 65.5986 207.574 66.2264V66.232C207.574 66.8673 207.685 67.4199 207.907 67.8898C208.132 68.356 208.452 68.7168 208.865 68.9725C209.283 69.2281 209.781 69.3559 210.36 69.3559ZM216.562 69.3559C217.025 69.3559 217.438 69.2789 217.803 69.1247C218.171 68.9706 218.463 68.7563 218.677 68.4819C218.891 68.2037 218.998 67.8842 218.998 67.5233V67.512C218.998 67.0759 218.858 66.7282 218.576 66.4688C218.297 66.2094 217.873 66.0102 217.301 65.8711L216.365 65.6455C216.128 65.5854 215.935 65.5159 215.784 65.4369C215.634 65.358 215.523 65.2659 215.452 65.1606C215.38 65.0553 215.345 64.9351 215.345 64.7997V64.7884C215.345 64.608 215.399 64.4501 215.508 64.3148C215.617 64.1794 215.766 64.0742 215.953 63.999C216.141 63.9201 216.356 63.8806 216.596 63.8806C216.965 63.8806 217.264 63.9558 217.493 64.1061C217.722 64.2565 217.869 64.452 217.933 64.6926H218.897C218.852 64.3618 218.728 64.0742 218.525 63.8298C218.326 63.5855 218.061 63.3975 217.73 63.2659C217.403 63.1306 217.027 63.0629 216.602 63.0629C216.173 63.0629 215.788 63.14 215.446 63.2941C215.104 63.4483 214.833 63.6588 214.634 63.9257C214.439 64.1926 214.341 64.4952 214.341 64.8336V64.8392C214.341 65.1287 214.399 65.3805 214.516 65.5948C214.632 65.8053 214.813 65.9839 215.057 66.1305C215.301 66.2733 215.613 66.3899 215.993 66.4801L216.935 66.7057C217.311 66.7959 217.581 66.9143 217.747 67.0609C217.912 67.2038 217.995 67.3786 217.995 67.5853V67.5966C217.995 67.7808 217.935 67.9443 217.814 68.0872C217.694 68.2263 217.529 68.3372 217.318 68.4199C217.111 68.4988 216.871 68.5383 216.596 68.5383C216.209 68.5383 215.895 68.4612 215.655 68.3071C215.414 68.153 215.252 67.95 215.17 67.6981H214.166C214.204 68.0327 214.326 68.324 214.533 68.5721C214.743 68.8202 215.021 69.0138 215.367 69.1529C215.713 69.2883 216.111 69.3559 216.562 69.3559ZM222.495 69.3559C222.957 69.3559 223.37 69.2789 223.735 69.1247C224.104 68.9706 224.395 68.7563 224.609 68.4819C224.823 68.2037 224.931 67.8842 224.931 67.5233V67.512C224.931 67.0759 224.79 66.7282 224.508 66.4688C224.229 66.2094 223.805 66.0102 223.233 65.8711L222.297 65.6455C222.06 65.5854 221.867 65.5159 221.716 65.4369C221.566 65.358 221.455 65.2659 221.384 65.1606C221.312 65.0553 221.277 64.9351 221.277 64.7997V64.7884C221.277 64.608 221.331 64.4501 221.44 64.3148C221.549 64.1794 221.698 64.0742 221.886 63.999C222.074 63.9201 222.288 63.8806 222.528 63.8806C222.897 63.8806 223.196 63.9558 223.425 64.1061C223.654 64.2565 223.801 64.452 223.865 64.6926H224.829C224.784 64.3618 224.66 64.0742 224.457 63.8298C224.258 63.5855 223.993 63.3975 223.662 63.2659C223.335 63.1306 222.959 63.0629 222.534 63.0629C222.105 63.0629 221.72 63.14 221.378 63.2941C221.036 63.4483 220.765 63.6588 220.566 63.9257C220.371 64.1926 220.273 64.4952 220.273 64.8336V64.8392C220.273 65.1287 220.331 65.3805 220.448 65.5948C220.564 65.8053 220.745 65.9839 220.989 66.1305C221.233 66.2733 221.545 66.3899 221.925 66.4801L222.867 66.7057C223.243 66.7959 223.513 66.9143 223.679 67.0609C223.844 67.2038 223.927 67.3786 223.927 67.5853V67.5966C223.927 67.7808 223.867 67.9443 223.746 68.0872C223.626 68.2263 223.461 68.3372 223.25 68.4199C223.043 68.4988 222.803 68.5383 222.528 68.5383C222.141 68.5383 221.827 68.4612 221.587 68.3071C221.346 68.153 221.184 67.95 221.102 67.6981H220.098C220.136 68.0327 220.258 68.324 220.465 68.5721C220.675 68.8202 220.953 69.0138 221.299 69.1529C221.645 69.2883 222.043 69.3559 222.495 69.3559Z" fill="#9AA4B2"/>
<rect x="51.249" y="57.2488" width="88.447" height="17" rx="8.5" fill="#121926" fill-opacity="0.08"/>
<g clip-path="url(#clip0_164_12264)">
<path d="M59.4985 72.3478C63.1431 72.3478 66.0976 69.3933 66.0976 65.7487C66.0976 62.1042 63.1431 59.1497 59.4985 59.1497C55.8539 59.1497 52.8994 62.1042 52.8994 65.7487C52.8994 69.3933 55.8539 72.3478 59.4985 72.3478Z" fill="#854CE6"/>
<path d="M65.6851 65.7487C65.6851 69.1655 62.9153 71.9354 59.4985 71.9354C56.0817 71.9354 53.3119 69.1655 53.3119 65.7487C53.3119 62.3319 56.0817 59.5621 59.4985 59.5621C62.9153 59.5621 65.6851 62.332 65.6851 65.7487Z" stroke="black" stroke-opacity="0.12" stroke-width="0.824885"/>
<path d="M61.6611 69.5429L61.7172 69.5201L62.6574 68.9734L63.6274 68.4105C63.6791 68.3823 63.7259 68.3461 63.7659 68.3031C63.8369 68.2285 63.8829 68.1343 63.8979 68.0331C63.8979 67.9875 63.8979 65.7552 63.8979 65.7065C63.88 65.5942 63.8283 65.49 63.7494 65.4071C63.6756 65.3383 63.5923 65.2803 63.502 65.2346L61.737 64.2161C61.6629 64.183 61.5824 64.1658 61.5011 64.1658C61.4197 64.1658 61.3393 64.183 61.2652 64.2161C61.2355 64.2161 61.0342 64.343 60.5888 64.6001L59.5068 65.2281L58.4378 65.8464C58.1079 66.0481 57.8011 66.2173 57.778 66.2238C57.7034 66.2612 57.6208 66.2801 57.5372 66.2792C57.4544 66.2793 57.3724 66.2628 57.2963 66.2304C57.26 66.2304 56.2736 65.6479 56.2208 65.6089C56.1692 65.5701 56.1236 65.5241 56.0856 65.4722C56.0433 65.4086 56.0132 65.3381 55.9965 65.2639C55.9847 65.0471 55.9847 64.8299 55.9965 64.6131C55.9699 64.3605 55.9777 64.1055 56.0196 63.8549C56.0413 63.7938 56.0712 63.7357 56.1087 63.6825C56.1461 63.632 56.1918 63.588 56.2439 63.5523C56.2835 63.5263 57.2337 62.9699 57.2633 62.9471C57.3399 62.9123 57.4232 62.8943 57.5075 62.8943C57.5918 62.8943 57.6751 62.9123 57.7516 62.9471C57.7846 62.9633 58.7414 63.5198 58.8139 63.5621C58.8838 63.6088 58.9415 63.6713 58.9822 63.7443C59.0087 63.789 59.0287 63.8372 59.0416 63.8875V63.9363V64.343C59.0416 64.5676 59.0416 64.753 59.0416 64.753L59.4804 64.5025L59.9125 64.2519V63.8452C59.9125 63.3929 59.9125 63.4091 59.8828 63.318C59.8428 63.2085 59.7718 63.1126 59.6783 63.0414C59.6453 63.0187 57.8506 61.9774 57.7648 61.9318L57.6955 61.8993H57.6658H57.3359L57.2864 61.9188C57.2502 61.9351 56.9961 62.0783 56.2967 62.4818C55.7787 62.7811 55.3433 63.0349 55.3268 63.0479C55.2672 63.0889 55.2165 63.141 55.1774 63.2013C55.1383 63.2616 55.1117 63.3289 55.0991 63.3994C55.0991 63.4449 55.0991 63.4807 55.0991 64.5936C55.0991 65.7065 55.0991 65.7455 55.0991 65.7878C55.1118 65.8601 55.1399 65.9288 55.1816 65.9896C55.2246 66.0503 55.2769 66.1041 55.3367 66.149C55.3795 66.175 57.2106 67.2391 57.2568 67.2619C57.3357 67.2984 57.4219 67.3174 57.5091 67.3174C57.5964 67.3174 57.6825 67.2984 57.7615 67.2619L58.4213 66.8746C58.9591 66.5492 59.1273 66.4614 59.487 66.2629C59.8466 66.0644 59.9455 66.0091 60.5558 65.6414L61.2157 65.2411C61.354 65.1785 61.5118 65.1727 61.6545 65.2249C61.6776 65.2306 61.6997 65.2394 61.7205 65.2509C61.7601 65.2704 62.7531 65.8691 62.7828 65.9017C62.8955 65.9898 62.9708 66.1163 62.9939 66.2564C62.9939 66.3149 62.9939 67.5287 62.9939 67.5873C62.9705 67.7313 62.8913 67.8608 62.7729 67.9484C62.7399 67.9712 61.7832 68.5374 61.7073 68.57C61.632 68.6031 61.5505 68.6202 61.4681 68.6202C61.3857 68.6202 61.3041 68.6031 61.2289 68.57C61.2025 68.57 61.0111 68.4463 60.6845 68.2446L60.1534 67.9192C60.0587 67.8478 59.9876 67.7505 59.9488 67.6393C59.9224 67.5579 59.9224 67.5808 59.9191 67.1252V66.7087L59.487 66.9592L59.0548 67.2098V67.6295C59.0548 68.0851 59.0548 68.0819 59.0779 68.1599C59.0966 68.2171 59.1244 68.2709 59.1603 68.3194C59.1975 68.369 59.242 68.4129 59.2923 68.4496C59.322 68.4724 61.1464 69.5396 61.1893 69.5624C61.2322 69.5852 61.2553 69.5982 61.4368 69.5982H61.5984L61.6611 69.5429Z" fill="white"/>
</g>
<path d="M70.8126 66.866H72.9876C73.4452 66.866 73.8464 66.7709 74.1911 66.5808C74.5391 66.3875 74.8114 66.1184 75.008 65.7736C75.2045 65.4256 75.3028 65.0245 75.3028 64.5701V64.5605C75.3028 64.1061 75.2045 63.7082 75.008 63.3666C74.8114 63.0219 74.5391 62.7544 74.1911 62.5643C73.8464 62.371 73.4452 62.2743 72.9876 62.2743H70.8126V63.1878H72.717C73.1874 63.1878 73.5515 63.3086 73.8093 63.5503C74.0703 63.792 74.2008 64.1319 74.2008 64.5701V64.5798C74.2008 65.0116 74.0703 65.3499 73.8093 65.5948C73.5515 65.8365 73.1874 65.9573 72.717 65.9573H70.8126V66.866ZM70.2713 69.2488H71.354V62.2743H70.2713V69.2488ZM78.6571 69.3503C79.1727 69.3503 79.6141 69.2407 79.9814 69.0216C80.352 68.8025 80.6372 68.4899 80.8369 68.084C81.0399 67.6747 81.1414 67.1898 81.1414 66.6291V66.6195C81.1414 66.0556 81.0399 65.5706 80.8369 65.1646C80.6372 64.7554 80.352 64.4429 79.9814 64.227C79.6109 64.0079 79.1694 63.8983 78.6571 63.8983C78.148 63.8983 77.7066 64.0079 77.3328 64.227C76.9622 64.4461 76.6754 64.7586 76.4724 65.1646C76.2727 65.5706 76.1728 66.0556 76.1728 66.6195V66.6291C76.1728 67.1898 76.2727 67.6747 76.4724 68.084C76.6722 68.4899 76.9574 68.8025 77.3279 69.0216C77.7017 69.2407 78.1448 69.3503 78.6571 69.3503ZM78.6571 68.4706C78.3574 68.4706 78.1029 68.3981 77.8934 68.2531C77.684 68.1049 77.5229 67.8938 77.4101 67.62C77.3006 67.3461 77.2458 67.0158 77.2458 66.6291V66.6195C77.2458 66.2296 77.3006 65.8977 77.4101 65.6238C77.5229 65.3499 77.684 65.1405 77.8934 64.9955C78.1029 64.8472 78.3574 64.7731 78.6571 64.7731C78.9568 64.7731 79.2113 64.8472 79.4208 64.9955C79.6302 65.1405 79.7897 65.3499 79.8993 65.6238C80.0088 65.8977 80.0636 66.2296 80.0636 66.6195V66.6291C80.0636 67.0158 80.0088 67.3461 79.8993 67.62C79.7897 67.8938 79.6302 68.1049 79.4208 68.2531C79.2113 68.3981 78.9568 68.4706 78.6571 68.4706ZM82.4368 69.2488H83.4856V61.9408H82.4368V69.2488ZM85.5591 71.0951C85.9167 71.0951 86.2196 71.0452 86.4677 70.9453C86.7158 70.8454 86.9301 70.6746 87.1106 70.4329C87.291 70.1945 87.4553 69.8658 87.6036 69.4469L89.5562 63.9998H88.4494L86.9704 68.7316L87.2942 68.1903H86.8931L87.2217 68.7316L85.7379 63.9998H84.6021L86.5064 69.2536L86.4291 69.5243C86.3517 69.7885 86.2373 69.977 86.0859 70.0898C85.9345 70.2058 85.7363 70.2638 85.4914 70.2638C85.4334 70.2638 85.3722 70.2622 85.3077 70.2589C85.2465 70.2557 85.1901 70.2509 85.1386 70.2444V71.0709C85.2062 71.0774 85.2771 71.0822 85.3512 71.0854C85.4253 71.0919 85.4946 71.0951 85.5591 71.0951ZM92.6399 71.0999C93.1393 71.0999 93.5711 71.0194 93.9352 70.8583C94.2993 70.6972 94.5796 70.47 94.7762 70.1768C94.976 69.8836 95.0759 69.5388 95.0759 69.1424V63.9998H94.027V64.8601H93.9642C93.8611 64.6636 93.7306 64.4944 93.5727 64.3526C93.4148 64.2109 93.2328 64.1013 93.0265 64.024C92.8235 63.9466 92.5996 63.908 92.3547 63.908C91.9004 63.908 91.5089 64.0175 91.1802 64.2366C90.8515 64.4525 90.5986 64.7538 90.4214 65.1405C90.2442 65.5239 90.1555 65.9654 90.1555 66.4648V66.4745C90.1555 66.9675 90.2425 67.4041 90.4165 67.7843C90.5938 68.1613 90.8451 68.4577 91.1705 68.6736C91.4992 68.8863 91.8859 68.9926 92.3305 68.9926C92.5722 68.9926 92.7961 68.9588 93.0024 68.8911C93.2086 68.8234 93.3923 68.7236 93.5534 68.5914C93.7145 68.4561 93.8466 68.295 93.9497 68.1081H94.0319V69.1376C94.0319 69.4921 93.9094 69.7676 93.6645 69.9641C93.4229 70.1607 93.0861 70.2589 92.6544 70.2589C92.3031 70.2589 92.0228 70.2009 91.8134 70.0849C91.6039 69.9689 91.4766 69.8207 91.4315 69.6403L91.4267 69.6306H90.3634L90.3585 69.6403C90.4004 69.9303 90.5164 70.1848 90.7065 70.4039C90.8967 70.6231 91.1544 70.7938 91.4799 70.9163C91.8085 71.0387 92.1952 71.0999 92.6399 71.0999ZM92.6254 68.1226C92.3289 68.1226 92.076 68.0533 91.8665 67.9148C91.6603 67.773 91.5024 67.5781 91.3929 67.33C91.2833 67.0818 91.2285 66.7951 91.2285 66.4696V66.46C91.2285 66.1345 91.2833 65.8477 91.3929 65.5996C91.5024 65.3483 91.6603 65.1517 91.8665 65.01C92.076 64.8682 92.3289 64.7973 92.6254 64.7973C92.9218 64.7973 93.1764 64.8682 93.389 65.01C93.6017 65.1517 93.7644 65.3483 93.8772 65.5996C93.9932 65.851 94.0512 66.1377 94.0512 66.46V66.4696C94.0512 66.7951 93.9932 67.0818 93.8772 67.33C93.7644 67.5781 93.6017 67.773 93.389 67.9148C93.1764 68.0533 92.9218 68.1226 92.6254 68.1226ZM98.812 69.3503C99.3276 69.3503 99.769 69.2407 100.136 69.0216C100.507 68.8025 100.792 68.4899 100.992 68.084C101.195 67.6747 101.296 67.1898 101.296 66.6291V66.6195C101.296 66.0556 101.195 65.5706 100.992 65.1646C100.792 64.7554 100.507 64.4429 100.136 64.227C99.7658 64.0079 99.3243 63.8983 98.812 63.8983C98.3029 63.8983 97.8615 64.0079 97.4877 64.227C97.1171 64.4461 96.8303 64.7586 96.6273 65.1646C96.4276 65.5706 96.3277 66.0556 96.3277 66.6195V66.6291C96.3277 67.1898 96.4276 67.6747 96.6273 68.084C96.8271 68.4899 97.1123 68.8025 97.4828 69.0216C97.8566 69.2407 98.2997 69.3503 98.812 69.3503ZM98.812 68.4706C98.5123 68.4706 98.2578 68.3981 98.0483 68.2531C97.8389 68.1049 97.6778 67.8938 97.565 67.62C97.4555 67.3461 97.4007 67.0158 97.4007 66.6291V66.6195C97.4007 66.2296 97.4555 65.8977 97.565 65.6238C97.6778 65.3499 97.8389 65.1405 98.0483 64.9955C98.2578 64.8472 98.5123 64.7731 98.812 64.7731C99.1117 64.7731 99.3662 64.8472 99.5757 64.9955C99.7851 65.1405 99.9446 65.3499 100.054 65.6238C100.164 65.8977 100.218 66.2296 100.218 66.6195V66.6291C100.218 67.0158 100.164 67.3461 100.054 67.62C99.9446 67.8938 99.7851 68.1049 99.5757 68.2531C99.3662 68.3981 99.1117 68.4706 98.812 68.4706ZM102.543 69.2488H103.592V66.17C103.592 65.8864 103.642 65.6431 103.742 65.4401C103.845 65.2339 103.99 65.076 104.177 64.9665C104.364 64.8537 104.585 64.7973 104.839 64.7973C105.226 64.7973 105.509 64.9052 105.69 65.1211C105.873 65.3338 105.965 65.6592 105.965 66.0975V69.2488H107.019V65.851C107.019 65.2259 106.863 64.7441 106.55 64.4058C106.238 64.0675 105.786 63.8983 105.197 63.8983C104.813 63.8983 104.496 63.9773 104.245 64.1351C103.993 64.293 103.803 64.5121 103.674 64.7925H103.592V63.9998H102.543V69.2488ZM113.384 69.3503C113.819 69.3503 114.192 69.2778 114.501 69.1328C114.813 68.9846 115.063 68.7816 115.25 68.5238C115.437 68.266 115.561 67.9663 115.622 67.6248L115.632 67.5813L114.627 67.5861L114.617 67.6103C114.533 67.8938 114.388 68.1081 114.182 68.2531C113.979 68.3981 113.713 68.4706 113.384 68.4706C113.098 68.4706 112.85 68.3965 112.64 68.2483C112.431 68.0968 112.27 67.8826 112.157 67.6055C112.044 67.3283 111.988 66.9965 111.988 66.6098V66.6001C111.988 66.2231 112.042 65.8977 112.152 65.6238C112.265 65.3499 112.426 65.1405 112.635 64.9955C112.845 64.8472 113.094 64.7731 113.384 64.7731C113.732 64.7731 114.011 64.8601 114.221 65.0341C114.43 65.2049 114.564 65.4192 114.622 65.677L114.627 65.6866H115.637L115.632 65.6625C115.584 65.3241 115.464 65.0229 115.274 64.7586C115.087 64.4912 114.834 64.2817 114.515 64.1303C114.2 63.9756 113.821 63.8983 113.38 63.8983C112.87 63.8983 112.431 64.0079 112.06 64.227C111.693 64.4461 111.409 64.757 111.209 65.1598C111.013 65.5626 110.915 66.0427 110.915 66.6001V66.6098C110.915 67.1769 111.014 67.6651 111.214 68.0743C111.414 68.4835 111.698 68.7993 112.065 69.0216C112.435 69.2407 112.875 69.3503 113.384 69.3503ZM116.869 69.2488H117.918V66.17C117.918 65.8864 117.968 65.6431 118.068 65.4401C118.171 65.2339 118.316 65.076 118.503 64.9665C118.69 64.8537 118.911 64.7973 119.165 64.7973C119.552 64.7973 119.835 64.9052 120.016 65.1211C120.199 65.3338 120.291 65.6592 120.291 66.0975V69.2488H121.345V65.851C121.345 65.4353 121.274 65.0825 121.132 64.7925C120.99 64.4992 120.784 64.2769 120.514 64.1255C120.243 63.974 119.913 63.8983 119.523 63.8983C119.139 63.8983 118.822 63.9773 118.571 64.1351C118.319 64.293 118.129 64.5121 118 64.7925H117.918V61.9408H116.869V69.2488ZM124.245 69.3358C124.477 69.3358 124.691 69.3036 124.888 69.2391C125.084 69.1747 125.26 69.0812 125.415 68.9588C125.569 68.8331 125.698 68.6817 125.801 68.5044H125.879V69.2488H126.923V65.6576C126.923 65.2903 126.842 64.9761 126.681 64.7151C126.523 64.4509 126.289 64.2495 125.98 64.111C125.674 63.9692 125.3 63.8983 124.859 63.8983C124.462 63.8983 124.11 63.9579 123.8 64.0771C123.494 64.1964 123.246 64.3639 123.056 64.5798C122.869 64.7925 122.755 65.0438 122.713 65.3338L122.708 65.3676H123.718L123.728 65.3531C123.789 65.1662 123.911 65.0212 124.095 64.9181C124.282 64.815 124.522 64.7635 124.815 64.7635C125.166 64.7635 125.431 64.8408 125.608 64.9955C125.788 65.1469 125.879 65.3676 125.879 65.6576V67.3106C125.879 67.5362 125.821 67.7392 125.705 67.9196C125.589 68.0968 125.427 68.2386 125.221 68.345C125.018 68.4481 124.786 68.4996 124.525 68.4996C124.245 68.4996 124.013 68.432 123.829 68.2966C123.646 68.1581 123.554 67.9696 123.554 67.7311V67.7215C123.554 67.4862 123.639 67.3042 123.81 67.1753C123.981 67.0432 124.246 66.9658 124.607 66.9433L126.401 66.8273V66.0878L124.462 66.2038C124.047 66.2296 123.692 66.3069 123.399 66.4358C123.109 66.5615 122.887 66.7355 122.732 66.9578C122.581 67.1801 122.505 67.4492 122.505 67.765V67.7746C122.505 68.0904 122.581 68.3659 122.732 68.6011C122.883 68.8363 123.09 69.0184 123.351 69.1473C123.615 69.2729 123.913 69.3358 124.245 69.3358ZM128.416 69.2488H129.47V63.9998H128.416V69.2488ZM128.948 63.0621C129.128 63.0621 129.283 62.9977 129.412 62.8688C129.541 62.7399 129.605 62.5853 129.605 62.4048C129.605 62.2244 129.541 62.0713 129.412 61.9456C129.283 61.8168 129.128 61.7523 128.948 61.7523C128.767 61.7523 128.613 61.8168 128.484 61.9456C128.355 62.0713 128.29 62.2244 128.29 62.4048C128.29 62.5853 128.355 62.7399 128.484 62.8688C128.613 62.9977 128.767 63.0621 128.948 63.0621ZM130.992 69.2488H132.041V66.17C132.041 65.8864 132.091 65.6431 132.191 65.4401C132.294 65.2339 132.439 65.076 132.626 64.9665C132.813 64.8537 133.033 64.7973 133.288 64.7973C133.675 64.7973 133.958 64.9052 134.139 65.1211C134.322 65.3338 134.414 65.6592 134.414 66.0975V69.2488H135.468V65.851C135.468 65.2259 135.312 64.7441 134.999 64.4058C134.686 64.0675 134.235 63.8983 133.646 63.8983C133.262 63.8983 132.945 63.9773 132.693 64.1351C132.442 64.293 132.252 64.5121 132.123 64.7925H132.041V63.9998H130.992V69.2488Z" fill="white"/>
<line opacity="0.2" x1="16" y1="48.5" x2="263" y2="48.5" stroke="url(#paint0_linear_164_12264)"/>
<line opacity="0.2" x1="16" y1="82.5" x2="263" y2="82.5" stroke="url(#paint1_linear_164_12264)"/>
<line opacity="0.2" x1="16" y1="93.5" x2="263" y2="93.5" stroke="url(#paint2_linear_164_12264)"/>
<line opacity="0.2" x1="16" y1="126.5" x2="263" y2="126.5" stroke="url(#paint3_linear_164_12264)"/>
<line opacity="0.2" x1="16" y1="138.5" x2="263" y2="138.5" stroke="url(#paint4_linear_164_12264)"/>
<line opacity="0.15" x1="16" y1="172.5" x2="263" y2="172.5" stroke="url(#paint5_linear_164_12264)"/>
<line opacity="0.1" x1="16" y1="183.5" x2="263" y2="183.5" stroke="url(#paint6_linear_164_12264)"/>
<line opacity="0.2" x1="42.5" y1="10" x2="42.5" y2="217" stroke="url(#paint7_linear_164_12264)"/>
<line opacity="0.2" x1="237.5" y1="10" x2="237.5" y2="217" stroke="url(#paint8_linear_164_12264)"/>
<rect x="43" y="94" width="193.848" height="32.9954" rx="3.29954" fill="white" fill-opacity="0.1"/>
<rect x="42.5" y="93.5" width="194.848" height="33.9954" rx="3.79954" stroke="white" stroke-opacity="0.2"/>
<rect x="51.249" y="102.249" width="121.447" height="17" rx="8.5" fill="#121926" fill-opacity="0.08"/>
<g clip-path="url(#clip1_164_12264)">
<path d="M59.498 117.348C63.1426 117.348 66.0971 114.393 66.0971 110.749C66.0971 107.104 63.1426 104.15 59.498 104.15C55.8534 104.15 52.8989 107.104 52.8989 110.749C52.8989 114.393 55.8534 117.348 59.498 117.348Z" fill="#F3BA2F"/>
<path d="M57.7888 110.047L59.4975 108.338L61.2071 110.047L62.2014 109.053L59.4975 106.349L56.7945 109.052L57.7888 110.047ZM55.0981 110.749L56.0924 109.754L57.0867 110.749L56.0924 111.743L55.0981 110.749ZM57.7888 111.451L59.4975 113.16L61.2071 111.45L62.2014 112.444L59.4975 115.148L56.7945 112.445L56.7932 112.444L57.7888 111.451ZM61.9084 110.749L62.9027 109.754L63.8969 110.749L62.9027 111.743L61.9084 110.749ZM60.5059 110.748H60.5067V110.749L59.4975 111.758L58.4896 110.751L58.4879 110.749L58.4896 110.747L58.666 110.571L58.7518 110.485L59.4975 109.74L60.5063 110.748L60.5059 110.748Z" fill="white"/>
<path d="M65.822 110.749C65.822 114.242 62.9906 117.073 59.4979 117.073C56.0052 117.073 53.1738 114.242 53.1738 110.749C53.1738 107.256 56.0052 104.425 59.4979 104.425C62.9906 104.425 65.822 107.256 65.822 110.749Z" stroke="black" stroke-opacity="0.097" stroke-width="0.824885"/>
</g>
<path d="M70.8126 114.249H73.1423C73.6385 114.249 74.0638 114.17 74.4183 114.012C74.7727 113.854 75.045 113.629 75.2351 113.335C75.4285 113.039 75.5251 112.688 75.5251 112.282V112.272C75.5251 111.969 75.4591 111.698 75.327 111.46C75.1948 111.218 75.0112 111.022 74.776 110.87C74.5407 110.719 74.2652 110.627 73.9495 110.595V110.513C74.1815 110.474 74.3893 110.382 74.573 110.237C74.7566 110.092 74.9032 109.915 75.0128 109.705C75.1223 109.493 75.1771 109.264 75.1771 109.019V109.009C75.1771 108.655 75.0933 108.349 74.9258 108.091C74.7582 107.83 74.5166 107.629 74.2008 107.487C73.8882 107.345 73.5145 107.274 73.0795 107.274H70.8126V108.159H72.8233C73.2261 108.159 73.5386 108.251 73.761 108.434C73.9833 108.615 74.0945 108.869 74.0945 109.198V109.208C74.0945 109.546 73.972 109.804 73.7271 109.981C73.4822 110.155 73.1197 110.242 72.6396 110.242H70.8126V111.068H72.8571C73.1987 111.068 73.4839 111.112 73.7126 111.199C73.9446 111.283 74.1186 111.408 74.2346 111.576C74.3506 111.744 74.4086 111.953 74.4086 112.204V112.214C74.4086 112.588 74.283 112.873 74.0316 113.069C73.7803 113.266 73.4097 113.364 72.92 113.364H70.8126V114.249ZM70.2713 114.249H71.354V107.274H70.2713V114.249ZM76.8059 114.249H77.8596V109H76.8059V114.249ZM77.3376 108.062C77.5181 108.062 77.6727 107.998 77.8016 107.869C77.9305 107.74 77.9949 107.585 77.9949 107.405C77.9949 107.224 77.9305 107.071 77.8016 106.946C77.6727 106.817 77.5181 106.752 77.3376 106.752C77.1572 106.752 77.0025 106.817 76.8736 106.946C76.7447 107.071 76.6803 107.224 76.6803 107.405C76.6803 107.585 76.7447 107.74 76.8736 107.869C77.0025 107.998 77.1572 108.062 77.3376 108.062ZM79.3821 114.249H80.4309V111.17C80.4309 110.886 80.4809 110.643 80.5808 110.44C80.6839 110.234 80.8289 110.076 81.0158 109.966C81.2026 109.854 81.4234 109.797 81.6779 109.797C82.0646 109.797 82.3481 109.905 82.5286 110.121C82.7123 110.334 82.8041 110.659 82.8041 111.097V114.249H83.8577V110.851C83.8577 110.226 83.7015 109.744 83.3889 109.406C83.0764 109.067 82.6253 108.898 82.0356 108.898C81.6521 108.898 81.3348 108.977 81.0834 109.135C80.8321 109.293 80.642 109.512 80.5131 109.792H80.4309V109H79.3821V114.249ZM86.7577 114.336C86.9897 114.336 87.204 114.304 87.4006 114.239C87.5971 114.175 87.7727 114.081 87.9274 113.959C88.0821 113.833 88.2109 113.682 88.3141 113.504H88.3914V114.249H89.4354V110.658C89.4354 110.29 89.3548 109.976 89.1937 109.715C89.0358 109.451 88.8022 109.25 88.4929 109.111C88.1868 108.969 87.813 108.898 87.3716 108.898C86.9752 108.898 86.6224 108.958 86.3131 109.077C86.007 109.196 85.7588 109.364 85.5687 109.58C85.3818 109.792 85.2675 110.044 85.2256 110.334L85.2207 110.368H86.2309L86.2406 110.353C86.3018 110.166 86.4242 110.021 86.6079 109.918C86.7948 109.815 87.0348 109.763 87.3281 109.763C87.6793 109.763 87.9435 109.841 88.1207 109.995C88.3012 110.147 88.3914 110.368 88.3914 110.658V112.311C88.3914 112.536 88.3334 112.739 88.2174 112.92C88.1014 113.097 87.9403 113.239 87.7341 113.345C87.5311 113.448 87.2991 113.5 87.0381 113.5C86.7577 113.5 86.5257 113.432 86.3421 113.297C86.1584 113.158 86.0666 112.97 86.0666 112.731V112.721C86.0666 112.486 86.152 112.304 86.3227 112.175C86.4935 112.043 86.7593 111.966 87.1202 111.943L88.9134 111.827V111.088L86.9752 111.204C86.5596 111.23 86.2051 111.307 85.9119 111.436C85.6219 111.561 85.3996 111.735 85.2449 111.958C85.0935 112.18 85.0177 112.449 85.0177 112.765V112.775C85.0177 113.09 85.0935 113.366 85.2449 113.601C85.3963 113.836 85.6026 114.018 85.8636 114.147C86.1278 114.273 86.4258 114.336 86.7577 114.336ZM90.9144 114.249H91.9632V111.17C91.9632 110.886 92.0131 110.643 92.113 110.44C92.2161 110.234 92.3611 110.076 92.548 109.966C92.7349 109.854 92.9556 109.797 93.2102 109.797C93.5969 109.797 93.8804 109.905 94.0609 110.121C94.2445 110.334 94.3364 110.659 94.3364 111.097V114.249H95.39V110.851C95.39 110.226 95.2337 109.744 94.9212 109.406C94.6086 109.067 94.1575 108.898 93.5679 108.898C93.1844 108.898 92.867 108.977 92.6157 109.135C92.3644 109.293 92.1743 109.512 92.0454 109.792H91.9632V109H90.9144V114.249ZM99.0585 114.35C99.4935 114.35 99.8657 114.278 100.175 114.133C100.488 113.985 100.737 113.782 100.924 113.524C101.111 113.266 101.235 112.966 101.296 112.625L101.306 112.581L100.301 112.586L100.291 112.61C100.207 112.894 100.062 113.108 99.856 113.253C99.653 113.398 99.3872 113.471 99.0585 113.471C98.7717 113.471 98.5236 113.397 98.3142 113.248C98.1047 113.097 97.9436 112.883 97.8308 112.605C97.7181 112.328 97.6617 111.996 97.6617 111.61V111.6C97.6617 111.223 97.7165 110.898 97.826 110.624C97.9388 110.35 98.0999 110.14 98.3093 109.995C98.5188 109.847 98.7685 109.773 99.0585 109.773C99.4065 109.773 99.6852 109.86 99.8947 110.034C100.104 110.205 100.238 110.419 100.296 110.677L100.301 110.687H101.311L101.306 110.662C101.258 110.324 101.138 110.023 100.948 109.759C100.761 109.491 100.508 109.282 100.189 109.13C99.8737 108.976 99.4951 108.898 99.0537 108.898C98.5446 108.898 98.1047 109.008 97.7342 109.227C97.3668 109.446 97.0833 109.757 96.8835 110.16C96.687 110.563 96.5887 111.043 96.5887 111.6V111.61C96.5887 112.177 96.6886 112.665 96.8883 113.074C97.0881 113.484 97.3717 113.799 97.739 114.022C98.1096 114.241 98.5494 114.35 99.0585 114.35ZM104.699 114.35C105.037 114.35 105.335 114.307 105.593 114.22C105.854 114.133 106.076 114.018 106.26 113.877C106.447 113.735 106.597 113.579 106.71 113.408C106.822 113.234 106.901 113.06 106.946 112.886L106.956 112.842H105.941L105.922 112.881C105.883 112.971 105.811 113.063 105.704 113.156C105.601 113.25 105.467 113.329 105.303 113.393C105.142 113.455 104.949 113.485 104.723 113.485C104.43 113.485 104.175 113.421 103.959 113.292C103.747 113.163 103.582 112.976 103.466 112.731C103.35 112.486 103.292 112.191 103.292 111.847V111.426C103.292 111.065 103.35 110.761 103.466 110.513C103.586 110.265 103.747 110.078 103.95 109.952C104.156 109.823 104.39 109.759 104.651 109.759C104.912 109.759 105.142 109.82 105.342 109.942C105.542 110.065 105.698 110.25 105.811 110.498C105.927 110.743 105.985 111.052 105.985 111.426V111.847L106.487 111.151H102.766V111.9H107.009V111.532C107.009 111.004 106.914 110.543 106.724 110.15C106.534 109.754 106.262 109.446 105.907 109.227C105.556 109.008 105.136 108.898 104.646 108.898C104.159 108.898 103.734 109.013 103.37 109.241C103.009 109.47 102.729 109.789 102.529 110.198C102.332 110.608 102.234 111.086 102.234 111.634V111.639C102.234 112.193 102.332 112.673 102.529 113.079C102.729 113.485 103.012 113.799 103.379 114.022C103.747 114.241 104.187 114.35 104.699 114.35ZM113.433 114.418C113.974 114.418 114.445 114.329 114.844 114.152C115.244 113.975 115.551 113.725 115.767 113.403C115.986 113.078 116.096 112.692 116.096 112.248V112.243C116.096 111.898 116.025 111.602 115.883 111.354C115.745 111.102 115.524 110.891 115.221 110.72C114.918 110.55 114.523 110.413 114.037 110.31L113.273 110.14C112.825 110.044 112.502 109.91 112.302 109.739C112.105 109.565 112.007 109.349 112.007 109.092V109.087C112.007 108.868 112.068 108.681 112.191 108.526C112.316 108.371 112.485 108.254 112.698 108.173C112.911 108.09 113.152 108.048 113.423 108.048C113.703 108.044 113.948 108.086 114.158 108.173C114.37 108.257 114.54 108.373 114.665 108.521C114.794 108.67 114.873 108.839 114.902 109.029L114.912 109.092H115.97L115.965 109.029C115.94 108.665 115.819 108.338 115.603 108.048C115.39 107.758 115.099 107.529 114.728 107.361C114.361 107.191 113.931 107.105 113.438 107.105C112.945 107.105 112.508 107.191 112.128 107.361C111.748 107.532 111.449 107.771 111.234 108.077C111.021 108.383 110.913 108.737 110.91 109.14V109.145C110.91 109.66 111.071 110.084 111.393 110.416C111.715 110.745 112.229 110.985 112.935 111.136L113.699 111.296C114.159 111.396 114.491 111.534 114.694 111.711C114.897 111.889 114.999 112.111 114.999 112.378V112.383C114.999 112.596 114.933 112.784 114.801 112.949C114.672 113.113 114.493 113.242 114.264 113.335C114.035 113.429 113.774 113.475 113.481 113.475C113.169 113.475 112.89 113.432 112.645 113.345C112.403 113.258 112.21 113.137 112.065 112.982C111.923 112.828 111.841 112.646 111.818 112.436L111.814 112.383H110.745L110.75 112.446C110.782 112.836 110.911 113.179 111.137 113.475C111.362 113.772 111.67 114.004 112.06 114.171C112.45 114.336 112.908 114.418 113.433 114.418ZM117.401 114.249H118.45V111.025C118.45 110.796 118.498 110.59 118.595 110.406C118.691 110.219 118.822 110.071 118.986 109.962C119.154 109.852 119.342 109.797 119.552 109.797C119.758 109.797 119.937 109.838 120.088 109.918C120.24 109.995 120.356 110.108 120.436 110.256C120.52 110.401 120.562 110.574 120.562 110.774V114.249H121.611V110.928C121.611 110.716 121.656 110.526 121.746 110.358C121.839 110.187 121.968 110.052 122.133 109.952C122.3 109.849 122.495 109.797 122.718 109.797C122.943 109.797 123.13 109.838 123.278 109.918C123.43 109.999 123.542 110.12 123.617 110.281C123.691 110.439 123.728 110.638 123.728 110.88V114.249H124.777V110.629C124.777 110.265 124.71 109.954 124.578 109.696C124.446 109.438 124.255 109.241 124.003 109.106C123.752 108.968 123.449 108.898 123.095 108.898C122.856 108.898 122.631 108.937 122.418 109.014C122.208 109.092 122.025 109.201 121.867 109.343C121.709 109.482 121.587 109.646 121.5 109.836H121.417C121.34 109.646 121.232 109.482 121.094 109.343C120.958 109.201 120.796 109.092 120.605 109.014C120.415 108.937 120.201 108.898 119.963 108.898C119.618 108.898 119.321 108.977 119.073 109.135C118.828 109.293 118.648 109.517 118.532 109.807H118.45V109H117.401V114.249ZM127.686 114.336C127.918 114.336 128.132 114.304 128.329 114.239C128.526 114.175 128.701 114.081 128.856 113.959C129.011 113.833 129.139 113.682 129.243 113.504H129.32V114.249H130.364V110.658C130.364 110.29 130.283 109.976 130.122 109.715C129.964 109.451 129.731 109.25 129.421 109.111C129.115 108.969 128.741 108.898 128.3 108.898C127.904 108.898 127.551 108.958 127.242 109.077C126.935 109.196 126.687 109.364 126.497 109.58C126.31 109.792 126.196 110.044 126.154 110.334L126.149 110.368H127.159L127.169 110.353C127.23 110.166 127.353 110.021 127.536 109.918C127.723 109.815 127.963 109.763 128.257 109.763C128.608 109.763 128.872 109.841 129.049 109.995C129.23 110.147 129.32 110.368 129.32 110.658V112.311C129.32 112.536 129.262 112.739 129.146 112.92C129.03 113.097 128.869 113.239 128.663 113.345C128.46 113.448 128.228 113.5 127.967 113.5C127.686 113.5 127.454 113.432 127.271 113.297C127.087 113.158 126.995 112.97 126.995 112.731V112.721C126.995 112.486 127.08 112.304 127.251 112.175C127.422 112.043 127.688 111.966 128.049 111.943L129.842 111.827V111.088L127.904 111.204C127.488 111.23 127.134 111.307 126.84 111.436C126.55 111.561 126.328 111.735 126.173 111.958C126.022 112.18 125.946 112.449 125.946 112.765V112.775C125.946 113.09 126.022 113.366 126.173 113.601C126.325 113.836 126.531 114.018 126.792 114.147C127.056 114.273 127.354 114.336 127.686 114.336ZM131.843 114.249H132.892V111.112C132.892 110.857 132.948 110.638 133.061 110.455C133.177 110.268 133.335 110.123 133.534 110.02C133.737 109.917 133.973 109.865 134.24 109.865C134.34 109.865 134.435 109.87 134.525 109.879C134.619 109.889 134.712 109.904 134.806 109.923V108.956C134.754 108.943 134.686 108.932 134.603 108.922C134.519 108.913 134.433 108.908 134.346 108.908C133.998 108.908 133.705 108.985 133.467 109.14C133.232 109.295 133.067 109.512 132.974 109.792H132.892V109H131.843V114.249ZM137.904 114.283C138.007 114.283 138.107 114.276 138.203 114.263C138.3 114.254 138.39 114.242 138.474 114.229V113.388C138.4 113.395 138.334 113.4 138.276 113.403C138.221 113.406 138.155 113.408 138.078 113.408C137.817 113.408 137.63 113.347 137.517 113.224C137.404 113.098 137.348 112.894 137.348 112.61V109.826H138.474V109H137.348V107.675H136.275V109H135.453V109.826H136.275V112.866C136.275 113.369 136.402 113.732 136.657 113.954C136.915 114.173 137.33 114.283 137.904 114.283ZM145.381 114.418C145.903 114.418 146.369 114.326 146.778 114.142C147.187 113.956 147.522 113.695 147.783 113.359C148.044 113.024 148.208 112.633 148.276 112.185L148.281 112.161H147.198L147.189 112.18C147.127 112.441 147.013 112.668 146.845 112.862C146.678 113.052 146.468 113.198 146.217 113.301C145.969 113.405 145.692 113.456 145.386 113.456C144.967 113.456 144.604 113.347 144.298 113.127C143.995 112.908 143.76 112.597 143.593 112.195C143.428 111.792 143.346 111.317 143.346 110.769V110.759C143.346 110.205 143.428 109.728 143.593 109.328C143.76 108.926 143.995 108.615 144.298 108.396C144.604 108.177 144.965 108.067 145.381 108.067C145.687 108.067 145.964 108.125 146.212 108.241C146.46 108.357 146.67 108.52 146.841 108.729C147.011 108.939 147.129 109.187 147.193 109.473L147.198 109.493H148.276V109.464C148.218 109.003 148.055 108.595 147.788 108.241C147.524 107.887 147.184 107.609 146.768 107.41C146.356 107.207 145.893 107.105 145.381 107.105C144.733 107.105 144.174 107.253 143.704 107.55C143.233 107.846 142.871 108.267 142.616 108.811C142.362 109.356 142.234 110.005 142.234 110.759V110.769C142.234 111.52 142.362 112.167 142.616 112.712C142.871 113.256 143.233 113.677 143.704 113.973C144.177 114.27 144.736 114.418 145.381 114.418ZM149.629 114.249H150.678V111.17C150.678 110.886 150.728 110.643 150.828 110.44C150.931 110.234 151.076 110.076 151.263 109.966C151.45 109.854 151.671 109.797 151.925 109.797C152.312 109.797 152.595 109.905 152.776 110.121C152.96 110.334 153.051 110.659 153.051 111.097V114.249H154.105V110.851C154.105 110.435 154.034 110.082 153.892 109.792C153.751 109.499 153.544 109.277 153.274 109.125C153.003 108.974 152.673 108.898 152.283 108.898C151.899 108.898 151.582 108.977 151.331 109.135C151.079 109.293 150.889 109.512 150.76 109.792H150.678V106.941H149.629V114.249ZM157.005 114.336C157.237 114.336 157.451 114.304 157.648 114.239C157.844 114.175 158.02 114.081 158.175 113.959C158.329 113.833 158.458 113.682 158.561 113.504H158.639V114.249H159.683V110.658C159.683 110.29 159.602 109.976 159.441 109.715C159.283 109.451 159.05 109.25 158.74 109.111C158.434 108.969 158.06 108.898 157.619 108.898C157.223 108.898 156.87 108.958 156.56 109.077C156.254 109.196 156.006 109.364 155.816 109.58C155.629 109.792 155.515 110.044 155.473 110.334L155.468 110.368H156.478L156.488 110.353C156.549 110.166 156.672 110.021 156.855 109.918C157.042 109.815 157.282 109.763 157.575 109.763C157.927 109.763 158.191 109.841 158.368 109.995C158.548 110.147 158.639 110.368 158.639 110.658V112.311C158.639 112.536 158.581 112.739 158.465 112.92C158.349 113.097 158.188 113.239 157.981 113.345C157.778 113.448 157.546 113.5 157.285 113.5C157.005 113.5 156.773 113.432 156.589 113.297C156.406 113.158 156.314 112.97 156.314 112.731V112.721C156.314 112.486 156.399 112.304 156.57 112.175C156.741 112.043 157.007 111.966 157.368 111.943L159.161 111.827V111.088L157.223 111.204C156.807 111.23 156.452 111.307 156.159 111.436C155.869 111.561 155.647 111.735 155.492 111.958C155.341 112.18 155.265 112.449 155.265 112.765V112.775C155.265 113.09 155.341 113.366 155.492 113.601C155.644 113.836 155.85 114.018 156.111 114.147C156.375 114.273 156.673 114.336 157.005 114.336ZM161.176 114.249H162.23V109H161.176V114.249ZM161.708 108.062C161.888 108.062 162.043 107.998 162.172 107.869C162.301 107.74 162.365 107.585 162.365 107.405C162.365 107.224 162.301 107.071 162.172 106.946C162.043 106.817 161.888 106.752 161.708 106.752C161.527 106.752 161.373 106.817 161.244 106.946C161.115 107.071 161.051 107.224 161.051 107.405C161.051 107.585 161.115 107.74 161.244 107.869C161.373 107.998 161.527 108.062 161.708 108.062ZM163.752 114.249H164.801V111.17C164.801 110.886 164.851 110.643 164.951 110.44C165.054 110.234 165.199 110.076 165.386 109.966C165.573 109.854 165.794 109.797 166.048 109.797C166.435 109.797 166.718 109.905 166.899 110.121C167.082 110.334 167.174 110.659 167.174 111.097V114.249H168.228V110.851C168.228 110.226 168.072 109.744 167.759 109.406C167.447 109.067 166.995 108.898 166.406 108.898C166.022 108.898 165.705 108.977 165.454 109.135C165.202 109.293 165.012 109.512 164.883 109.792H164.801V109H163.752V114.249Z" fill="white"/>
<rect x="43" y="139" width="193.848" height="32.9954" rx="3.29954" fill="url(#paint9_linear_164_12264)" fill-opacity="0.1"/>
<rect x="42.5" y="138.5" width="194.848" height="33.9954" rx="3.79954" stroke="url(#paint10_linear_164_12264)" stroke-opacity="0.2"/>
<rect x="51.249" y="147.249" width="97.447" height="17" rx="8.5" fill="#121926" fill-opacity="0.08"/>
<g opacity="0.75" clip-path="url(#clip2_164_12264)">
<path d="M59.498 162.348C63.1426 162.348 66.0971 159.393 66.0971 155.749C66.0971 152.104 63.1426 149.15 59.498 149.15C55.8534 149.15 52.8989 152.104 52.8989 155.749C52.8989 159.393 55.8534 162.348 59.498 162.348Z" fill="#627EEA"/>
<path d="M65.8221 155.749C65.8221 159.242 62.9907 162.073 59.4979 162.073C56.0052 162.073 53.1738 159.242 53.1738 155.749C53.1738 152.256 56.0052 149.425 59.4979 149.425C62.9907 149.425 65.8221 152.256 65.8221 155.749Z" stroke="black" stroke-opacity="0.097" stroke-width="0.824885"/>
<path d="M59.498 151.349V154.602L62.2471 155.83L59.498 151.349Z" fill="white" fill-opacity="0.602"/>
<path d="M59.4975 151.349L56.748 155.83L59.4975 154.602V151.349Z" fill="white"/>
<path d="M59.498 157.938V160.148L62.249 156.342L59.498 157.938Z" fill="white" fill-opacity="0.602"/>
<path d="M59.4975 160.148V157.938L56.748 156.342L59.4975 160.148Z" fill="white"/>
<path d="M59.498 157.427L62.2471 155.83L59.498 154.603V157.427Z" fill="white" fill-opacity="0.2"/>
<path d="M56.748 155.83L59.4975 157.427V154.603L56.748 155.83Z" fill="white" fill-opacity="0.602"/>
</g>
<path opacity="0.5" d="M70.2713 159.249H74.6986V158.311H71.354V156.146H74.5198V155.247H71.354V153.212H74.6986V152.274H70.2713V159.249ZM78.1254 159.283C78.2286 159.283 78.3284 159.276 78.4251 159.263C78.5218 159.254 78.612 159.242 78.6958 159.229V158.388C78.6217 158.395 78.5556 158.4 78.4976 158.403C78.4428 158.406 78.3768 158.408 78.2994 158.408C78.0384 158.408 77.8516 158.347 77.7388 158.224C77.626 158.098 77.5696 157.894 77.5696 157.61V154.826H78.6958V154H77.5696V152.675H76.4966V154H75.675V154.826H76.4966V157.866C76.4966 158.369 76.6239 158.732 76.8784 158.954C77.1362 159.173 77.5519 159.283 78.1254 159.283ZM79.9718 159.249H81.0206V156.17C81.0206 155.886 81.0705 155.643 81.1704 155.44C81.2735 155.234 81.4185 155.076 81.6054 154.966C81.7923 154.854 82.013 154.797 82.2676 154.797C82.6543 154.797 82.9378 154.905 83.1182 155.121C83.3019 155.334 83.3937 155.659 83.3937 156.097V159.249H84.4474V155.851C84.4474 155.435 84.3765 155.082 84.2347 154.792C84.093 154.499 83.8867 154.277 83.6161 154.125C83.3454 153.974 83.0151 153.898 82.6253 153.898C82.2418 153.898 81.9244 153.977 81.6731 154.135C81.4218 154.293 81.2316 154.512 81.1028 154.792H81.0206V151.941H79.9718V159.249ZM88.1111 159.35C88.4494 159.35 88.7474 159.307 89.0052 159.22C89.2662 159.133 89.4885 159.018 89.6722 158.877C89.8591 158.735 90.0089 158.579 90.1217 158.408C90.2345 158.234 90.3134 158.06 90.3585 157.886L90.3682 157.842H89.3532L89.3339 157.881C89.2952 157.971 89.2227 158.063 89.1164 158.156C89.0133 158.25 88.8796 158.329 88.7152 158.393C88.5541 158.455 88.3608 158.485 88.1352 158.485C87.842 158.485 87.5874 158.421 87.3716 158.292C87.1589 158.163 86.9946 157.976 86.8786 157.731C86.7626 157.486 86.7046 157.191 86.7046 156.847V156.426C86.7046 156.065 86.7626 155.761 86.8786 155.513C86.9978 155.265 87.1589 155.078 87.3619 154.952C87.5681 154.823 87.8017 154.759 88.0627 154.759C88.3237 154.759 88.5541 154.82 88.7539 154.942C88.9537 155.065 89.1099 155.25 89.2227 155.498C89.3387 155.743 89.3967 156.052 89.3967 156.426V156.847L89.8994 156.151H86.1777V156.9H90.4214V156.532C90.4214 156.004 90.3263 155.543 90.1362 155.15C89.9461 154.754 89.6738 154.446 89.3194 154.227C88.9682 154.008 88.5477 153.898 88.0579 153.898C87.5713 153.898 87.146 154.013 86.7819 154.241C86.421 154.47 86.1407 154.789 85.9409 155.198C85.7443 155.608 85.6461 156.086 85.6461 156.634V156.639C85.6461 157.193 85.7443 157.673 85.9409 158.079C86.1407 158.485 86.4242 158.799 86.7916 159.022C87.1589 159.241 87.5987 159.35 88.1111 159.35ZM91.6684 159.249H92.7172V156.112C92.7172 155.857 92.7736 155.638 92.8864 155.455C93.0024 155.268 93.1603 155.123 93.36 155.02C93.563 154.917 93.7982 154.865 94.0657 154.865C94.1656 154.865 94.2606 154.87 94.3509 154.879C94.4443 154.889 94.5377 154.904 94.6312 154.923V153.956C94.5796 153.943 94.512 153.932 94.4282 153.922C94.3444 153.913 94.259 153.908 94.172 153.908C93.824 153.908 93.5308 153.985 93.2924 154.14C93.0571 154.295 92.8928 154.512 92.7994 154.792H92.7172V154H91.6684V159.249ZM97.71 159.35C98.0483 159.35 98.3464 159.307 98.6042 159.22C98.8652 159.133 99.0875 159.018 99.2712 158.877C99.4581 158.735 99.6079 158.579 99.7207 158.408C99.8334 158.234 99.9124 158.06 99.9575 157.886L99.9672 157.842H98.9522L98.9328 157.881C98.8942 157.971 98.8217 158.063 98.7153 158.156C98.6122 158.25 98.4785 158.329 98.3142 158.393C98.1531 158.455 97.9597 158.485 97.7342 158.485C97.441 158.485 97.1864 158.421 96.9705 158.292C96.7578 158.163 96.5935 157.976 96.4775 157.731C96.3615 157.486 96.3035 157.191 96.3035 156.847V156.426C96.3035 156.065 96.3615 155.761 96.4775 155.513C96.5967 155.265 96.7578 155.078 96.9608 154.952C97.1671 154.823 97.4007 154.759 97.6617 154.759C97.9227 154.759 98.1531 154.82 98.3528 154.942C98.5526 155.065 98.7089 155.25 98.8217 155.498C98.9377 155.743 98.9957 156.052 98.9957 156.426V156.847L99.4983 156.151H95.7767V156.9H100.02V156.532C100.02 156.004 99.9253 155.543 99.7352 155.15C99.5451 154.754 99.2728 154.446 98.9183 154.227C98.5671 154.008 98.1466 153.898 97.6568 153.898C97.1703 153.898 96.745 154.013 96.3808 154.241C96.02 154.47 95.7396 154.789 95.5399 155.198C95.3433 155.608 95.245 156.086 95.245 156.634V156.639C95.245 157.193 95.3433 157.673 95.5399 158.079C95.7396 158.485 96.0232 158.799 96.3905 159.022C96.7578 159.241 97.1977 159.35 97.71 159.35ZM103.017 159.35C103.272 159.35 103.499 159.315 103.698 159.244C103.901 159.173 104.075 159.072 104.22 158.939C104.365 158.804 104.48 158.643 104.564 158.456H104.641V159.249H105.695V154H104.641V157.079C104.641 157.291 104.614 157.481 104.559 157.649C104.507 157.817 104.427 157.96 104.317 158.079C104.208 158.198 104.072 158.29 103.911 158.355C103.75 158.416 103.566 158.446 103.36 158.446C102.973 158.446 102.695 158.339 102.524 158.123C102.353 157.907 102.268 157.583 102.268 157.151V154H101.219V157.398C101.219 157.81 101.285 158.163 101.417 158.456C101.552 158.746 101.754 158.968 102.021 159.123C102.292 159.275 102.624 159.35 103.017 159.35ZM107.203 159.249H108.251V156.025C108.251 155.796 108.3 155.59 108.396 155.406C108.493 155.219 108.624 155.071 108.788 154.962C108.956 154.852 109.144 154.797 109.353 154.797C109.56 154.797 109.739 154.838 109.89 154.918C110.041 154.995 110.157 155.108 110.238 155.256C110.322 155.401 110.364 155.574 110.364 155.774V159.249H111.412V155.928C111.412 155.716 111.458 155.526 111.548 155.358C111.641 155.187 111.77 155.052 111.934 154.952C112.102 154.849 112.297 154.797 112.519 154.797C112.745 154.797 112.932 154.838 113.08 154.918C113.231 154.999 113.344 155.12 113.418 155.281C113.492 155.439 113.529 155.638 113.529 155.88V159.249H114.578V155.629C114.578 155.265 114.512 154.954 114.38 154.696C114.248 154.438 114.056 154.241 113.805 154.106C113.554 153.968 113.251 153.898 112.896 153.898C112.658 153.898 112.432 153.937 112.22 154.014C112.01 154.092 111.826 154.201 111.669 154.343C111.511 154.482 111.388 154.646 111.301 154.836H111.219C111.142 154.646 111.034 154.482 110.895 154.343C110.76 154.201 110.597 154.092 110.407 154.014C110.217 153.937 110.003 153.898 109.764 153.898C109.42 153.898 109.123 153.977 108.875 154.135C108.63 154.293 108.45 154.517 108.334 154.807H108.251V154H107.203V159.249ZM121.727 159.418C122.249 159.418 122.714 159.326 123.124 159.142C123.533 158.956 123.868 158.695 124.129 158.359C124.39 158.024 124.554 157.633 124.622 157.185L124.627 157.161H123.544L123.534 157.18C123.473 157.441 123.359 157.668 123.191 157.862C123.024 158.052 122.814 158.198 122.563 158.301C122.315 158.405 122.038 158.456 121.732 158.456C121.313 158.456 120.95 158.347 120.644 158.127C120.341 157.908 120.106 157.597 119.938 157.195C119.774 156.792 119.692 156.317 119.692 155.769V155.759C119.692 155.205 119.774 154.728 119.938 154.328C120.106 153.926 120.341 153.615 120.644 153.396C120.95 153.177 121.311 153.067 121.727 153.067C122.033 153.067 122.31 153.125 122.558 153.241C122.806 153.357 123.016 153.52 123.186 153.729C123.357 153.939 123.475 154.187 123.539 154.473L123.544 154.493H124.622V154.464C124.564 154.003 124.401 153.595 124.134 153.241C123.869 152.887 123.53 152.609 123.114 152.41C122.701 152.207 122.239 152.105 121.727 152.105C121.079 152.105 120.52 152.253 120.05 152.55C119.579 152.846 119.217 153.267 118.962 153.811C118.708 154.356 118.58 155.005 118.58 155.759V155.769C118.58 156.52 118.708 157.167 118.962 157.712C119.217 158.256 119.579 158.677 120.05 158.973C120.523 159.27 121.082 159.418 121.727 159.418ZM125.975 159.249H127.024V156.17C127.024 155.886 127.074 155.643 127.174 155.44C127.277 155.234 127.422 155.076 127.609 154.966C127.796 154.854 128.016 154.797 128.271 154.797C128.658 154.797 128.941 154.905 129.122 155.121C129.305 155.334 129.397 155.659 129.397 156.097V159.249H130.451V155.851C130.451 155.435 130.38 155.082 130.238 154.792C130.096 154.499 129.89 154.277 129.62 154.125C129.349 153.974 129.019 153.898 128.629 153.898C128.245 153.898 127.928 153.977 127.677 154.135C127.425 154.293 127.235 154.512 127.106 154.792H127.024V151.941H125.975V159.249ZM133.351 159.336C133.583 159.336 133.797 159.304 133.994 159.239C134.19 159.175 134.366 159.081 134.52 158.959C134.675 158.833 134.804 158.682 134.907 158.504H134.984V159.249H136.028V155.658C136.028 155.29 135.948 154.976 135.787 154.715C135.629 154.451 135.395 154.25 135.086 154.111C134.78 153.969 134.406 153.898 133.965 153.898C133.568 153.898 133.215 153.958 132.906 154.077C132.6 154.196 132.352 154.364 132.162 154.58C131.975 154.792 131.861 155.044 131.819 155.334L131.814 155.368H132.824L132.834 155.353C132.895 155.166 133.017 155.021 133.201 154.918C133.388 154.815 133.628 154.763 133.921 154.763C134.272 154.763 134.537 154.841 134.714 154.995C134.894 155.147 134.984 155.368 134.984 155.658V157.311C134.984 157.536 134.926 157.739 134.81 157.92C134.694 158.097 134.533 158.239 134.327 158.345C134.124 158.448 133.892 158.5 133.631 158.5C133.351 158.5 133.119 158.432 132.935 158.297C132.751 158.158 132.66 157.97 132.66 157.731V157.721C132.66 157.486 132.745 157.304 132.916 157.175C133.087 157.043 133.352 156.966 133.713 156.943L135.506 156.827V156.088L133.568 156.204C133.153 156.23 132.798 156.307 132.505 156.436C132.215 156.561 131.993 156.735 131.838 156.958C131.687 157.18 131.611 157.449 131.611 157.765V157.775C131.611 158.09 131.687 158.366 131.838 158.601C131.989 158.836 132.196 159.018 132.457 159.147C132.721 159.273 133.019 159.336 133.351 159.336ZM137.522 159.249H138.576V154H137.522V159.249ZM138.054 153.062C138.234 153.062 138.389 152.998 138.518 152.869C138.647 152.74 138.711 152.585 138.711 152.405C138.711 152.224 138.647 152.071 138.518 151.946C138.389 151.817 138.234 151.752 138.054 151.752C137.873 151.752 137.719 151.817 137.59 151.946C137.461 152.071 137.396 152.224 137.396 152.405C137.396 152.585 137.461 152.74 137.59 152.869C137.719 152.998 137.873 153.062 138.054 153.062ZM140.098 159.249H141.147V156.17C141.147 155.886 141.197 155.643 141.297 155.44C141.4 155.234 141.545 155.076 141.732 154.966C141.919 154.854 142.139 154.797 142.394 154.797C142.781 154.797 143.064 154.905 143.245 155.121C143.428 155.334 143.52 155.659 143.52 156.097V159.249H144.574V155.851C144.574 155.226 144.417 154.744 144.105 154.406C143.792 154.067 143.341 153.898 142.752 153.898C142.368 153.898 142.051 153.977 141.799 154.135C141.548 154.293 141.358 154.512 141.229 154.792H141.147V154H140.098V159.249Z" fill="white"/>
<rect x="43" y="184" width="193.848" height="32.9954" rx="3.29954" fill="url(#paint11_linear_164_12264)" fill-opacity="0.1" stroke="url(#paint12_linear_164_12264)" stroke-opacity="0.2"/>
<rect x="51.249" y="192.249" width="64.447" height="17" rx="8.5" fill="#121926" fill-opacity="0.08"/>
<g opacity="0.5" clip-path="url(#clip3_164_12264)">
<path d="M59.498 207.348C63.1426 207.348 66.0971 204.393 66.0971 200.749C66.0971 197.104 63.1426 194.15 59.498 194.15C55.8534 194.15 52.8989 197.104 52.8989 200.749C52.8989 204.393 55.8534 207.348 59.498 207.348Z" fill="#2D374B"/>
<mask id="mask1_164_12264" style="mask-type:alpha" maskUnits="userSpaceOnUse" x="52" y="194" width="15" height="14">
<path d="M59.498 207.348C63.1426 207.348 66.0971 204.393 66.0971 200.749C66.0971 197.104 63.1426 194.15 59.498 194.15C55.8534 194.15 52.8989 197.104 52.8989 200.749C52.8989 204.393 55.8534 207.348 59.498 207.348Z" fill="#2D374B"/>
</mask>
<g mask="url(#mask1_164_12264)">
<path d="M59.4893 204.065L57.1058 207.772L54.9039 206.508L58.0343 201.619L59.4893 204.065Z" fill="#28A0F0"/>
<path d="M52.8993 205.021L52.9009 204.008L56.3214 198.73L57.5903 200.863L54.2884 206.154L53.0945 205.469C52.9774 205.374 52.9065 205.236 52.8991 205.087L52.8993 205.021Z" fill="#28A0F0"/>
<path d="M67.2324 205.976L65.5465 206.939L59.9361 198.025L60.8882 198C61.6996 197.988 62.5735 198.197 62.9746 198.846L66.1606 203.738L67.2324 205.37V205.976Z" fill="white"/>
<path d="M56.6976 198.025L59.2071 198.034L64.8848 207.316L62.9003 208.448L62.3606 207.541L56.6976 198.025Z" fill="white"/>
</g>
<path d="M65.822 200.749C65.822 204.241 62.9906 207.073 59.4979 207.073C56.0052 207.073 53.1738 204.241 53.1738 200.749C53.1738 197.256 56.0052 194.425 59.4979 194.425C62.9906 194.425 65.822 197.256 65.822 200.749Z" stroke="black" stroke-opacity="0.097" stroke-width="0.824885"/>
</g>
<path opacity="0.5" d="M69.7348 204.249H70.8755L72.7991 198.497H73.1278V197.274H72.253L69.7348 204.249ZM70.948 202.364H74.7325L74.428 201.494H71.2525L70.948 202.364ZM74.8001 204.249H75.9408L73.4275 197.274H72.8813V198.497L74.8001 204.249ZM77.0331 204.249H78.0819V201.112C78.0819 200.857 78.1383 200.638 78.2511 200.455C78.3671 200.268 78.525 200.123 78.7248 200.02C78.9278 199.917 79.163 199.865 79.4304 199.865C79.5303 199.865 79.6254 199.87 79.7156 199.879C79.809 199.889 79.9025 199.904 79.9959 199.923V198.956C79.9444 198.943 79.8767 198.932 79.7929 198.922C79.7092 198.913 79.6238 198.908 79.5368 198.908C79.1888 198.908 78.8955 198.985 78.6571 199.14C78.4219 199.295 78.2576 199.512 78.1641 199.792H78.0819V199H77.0331V204.249ZM83.7997 204.336C84.2412 204.336 84.6246 204.226 84.9501 204.007C85.2755 203.785 85.5268 203.471 85.7041 203.065C85.8845 202.659 85.9747 202.18 85.9747 201.629V201.619C85.9747 201.065 85.8861 200.585 85.7089 200.179C85.5317 199.773 85.2803 199.461 84.9549 199.241C84.6295 199.019 84.2444 198.908 83.7997 198.908C83.4389 198.908 83.1134 198.992 82.8234 199.159C82.5366 199.324 82.324 199.548 82.1854 199.831H82.1033V196.941H81.0544V204.249H82.1033V203.422H82.1854C82.3401 203.709 82.556 203.933 82.8331 204.094C83.1102 204.255 83.4324 204.336 83.7997 204.336ZM83.5001 203.437C83.2101 203.437 82.9587 203.364 82.7461 203.219C82.5334 203.074 82.3707 202.866 82.2579 202.596C82.1451 202.322 82.0888 202 82.0888 201.629V201.619C82.0888 201.246 82.1451 200.923 82.2579 200.653C82.3707 200.382 82.5334 200.174 82.7461 200.029C82.9587 199.881 83.2101 199.807 83.5001 199.807C83.7933 199.807 84.0446 199.881 84.2541 200.029C84.4635 200.174 84.623 200.382 84.7326 200.653C84.8454 200.92 84.9017 201.242 84.9017 201.619V201.629C84.9017 202.003 84.8454 202.325 84.7326 202.596C84.623 202.866 84.4635 203.074 84.2541 203.219C84.0446 203.364 83.7933 203.437 83.5001 203.437ZM87.2362 204.249H88.2899V199H87.2362V204.249ZM87.7679 198.062C87.9483 198.062 88.103 197.998 88.2319 197.869C88.3608 197.74 88.4252 197.585 88.4252 197.405C88.4252 197.224 88.3608 197.071 88.2319 196.946C88.103 196.817 87.9483 196.752 87.7679 196.752C87.5874 196.752 87.4328 196.817 87.3039 196.946C87.175 197.071 87.1106 197.224 87.1106 197.405C87.1106 197.585 87.175 197.74 87.3039 197.869C87.4328 197.998 87.5874 198.062 87.7679 198.062ZM91.794 204.283C91.8971 204.283 91.997 204.276 92.0937 204.263C92.1904 204.254 92.2806 204.242 92.3644 204.229V203.388C92.2903 203.395 92.2242 203.4 92.1662 203.403C92.1114 203.406 92.0454 203.408 91.968 203.408C91.707 203.408 91.5202 203.347 91.4074 203.224C91.2946 203.098 91.2382 202.894 91.2382 202.61V199.826H92.3644V199H91.2382V197.675H90.1652V199H89.3436V199.826H90.1652V202.866C90.1652 203.369 90.2925 203.732 90.547 203.954C90.8048 204.173 91.2205 204.283 91.794 204.283ZM93.592 204.249H94.6409V201.112C94.6409 200.857 94.6972 200.638 94.81 200.455C94.926 200.268 95.0839 200.123 95.2837 200.02C95.4867 199.917 95.7219 199.865 95.9893 199.865C96.0892 199.865 96.1843 199.87 96.2745 199.879C96.368 199.889 96.4614 199.904 96.5548 199.923V198.956C96.5033 198.943 96.4356 198.932 96.3518 198.922C96.2681 198.913 96.1827 198.908 96.0957 198.908C95.7477 198.908 95.4545 198.985 95.216 199.14C94.9808 199.295 94.8165 199.512 94.723 199.792H94.6409V199H93.592V204.249ZM99.3147 204.35C99.6981 204.35 100.02 204.271 100.281 204.113C100.542 203.956 100.736 203.736 100.861 203.456H100.939V204.249H101.992V199H100.939V202.079C100.939 202.359 100.89 202.602 100.794 202.808C100.697 203.011 100.552 203.169 100.359 203.282C100.169 203.392 99.9349 203.446 99.6578 203.446C99.2712 203.446 98.9924 203.339 98.8217 203.123C98.6509 202.907 98.5655 202.583 98.5655 202.151V199H97.5167V202.398C97.5167 202.81 97.5827 203.163 97.7148 203.456C97.8502 203.746 98.0516 203.968 98.319 204.123C98.5897 204.275 98.9216 204.35 99.3147 204.35ZM103.5 204.249H104.549V201.025C104.549 200.796 104.597 200.59 104.694 200.406C104.791 200.219 104.921 200.071 105.086 199.962C105.253 199.852 105.442 199.797 105.651 199.797C105.96 199.797 106.205 199.886 106.386 200.063C106.569 200.237 106.661 200.474 106.661 200.774V204.249H107.71V200.928C107.71 200.716 107.755 200.526 107.845 200.358C107.939 200.187 108.068 200.052 108.232 199.952C108.4 199.849 108.595 199.797 108.817 199.797C109.159 199.797 109.411 199.888 109.576 200.068C109.743 200.248 109.827 200.519 109.827 200.88V204.249H110.876V200.629C110.876 200.265 110.81 199.954 110.678 199.696C110.546 199.438 110.354 199.241 110.103 199.106C109.851 198.968 109.548 198.898 109.194 198.898C108.956 198.898 108.73 198.937 108.517 199.014C108.308 199.092 108.124 199.201 107.966 199.343C107.808 199.482 107.686 199.646 107.599 199.836H107.517C107.439 199.646 107.332 199.482 107.193 199.343C107.058 199.201 106.895 199.092 106.705 199.014C106.515 198.937 106.3 198.898 106.062 198.898C105.717 198.898 105.421 198.977 105.173 199.135C104.928 199.293 104.747 199.517 104.631 199.807H104.549V199H103.5V204.249Z" fill="url(#paint13_linear_164_12264)"/>
</g>
<defs>
<filter id="filter0_d_164_12264" x="30" y="40" width="219.848" height="58.9954" filterUnits="userSpaceOnUse" color-interpolation-filters="sRGB">
<feFlood flood-opacity="0" result="BackgroundImageFix"/>
<feColorMatrix in="SourceAlpha" type="matrix" values="0 0 0 0 0 0 0 0 0 0 0 0 0 0 0 0 0 0 127 0" result="hardAlpha"/>
<feOffset dy="4"/>
<feGaussianBlur stdDeviation="6"/>
<feComposite in2="hardAlpha" operator="out"/>
<feColorMatrix type="matrix" values="0 0 0 0 0 0 0 0 0 0 0 0 0 0 0 0 0 0 0.25 0"/>
<feBlend mode="normal" in2="BackgroundImageFix" result="effect1_dropShadow_164_12264"/>
<feBlend mode="normal" in="SourceGraphic" in2="effect1_dropShadow_164_12264" result="shape"/>
</filter>
<linearGradient id="paint0_linear_164_12264" x1="263" y1="49" x2="16" y2="49" gradientUnits="userSpaceOnUse">
<stop stop-color="white" stop-opacity="0"/>
<stop offset="0.496209" stop-color="white"/>
<stop offset="1" stop-color="white" stop-opacity="0"/>
</linearGradient>
<linearGradient id="paint1_linear_164_12264" x1="263" y1="83" x2="16" y2="83" gradientUnits="userSpaceOnUse">
<stop stop-color="white" stop-opacity="0"/>
<stop offset="0.496209" stop-color="white"/>
<stop offset="1" stop-color="white" stop-opacity="0"/>
</linearGradient>
<linearGradient id="paint2_linear_164_12264" x1="263" y1="94" x2="16" y2="94" gradientUnits="userSpaceOnUse">
<stop stop-color="white" stop-opacity="0"/>
<stop offset="0.496209" stop-color="white"/>
<stop offset="1" stop-color="white" stop-opacity="0"/>
</linearGradient>
<linearGradient id="paint3_linear_164_12264" x1="263" y1="127" x2="16" y2="127" gradientUnits="userSpaceOnUse">
<stop stop-color="white" stop-opacity="0"/>
<stop offset="0.496209" stop-color="white"/>
<stop offset="1" stop-color="white" stop-opacity="0"/>
</linearGradient>
<linearGradient id="paint4_linear_164_12264" x1="263" y1="139" x2="16" y2="139" gradientUnits="userSpaceOnUse">
<stop stop-color="white" stop-opacity="0"/>
<stop offset="0.496209" stop-color="white"/>
<stop offset="1" stop-color="white" stop-opacity="0"/>
</linearGradient>
<linearGradient id="paint5_linear_164_12264" x1="263" y1="173" x2="16" y2="173" gradientUnits="userSpaceOnUse">
<stop stop-color="white" stop-opacity="0"/>
<stop offset="0.496209" stop-color="white"/>
<stop offset="1" stop-color="white" stop-opacity="0"/>
</linearGradient>
<linearGradient id="paint6_linear_164_12264" x1="263" y1="184" x2="16" y2="184" gradientUnits="userSpaceOnUse">
<stop stop-color="white" stop-opacity="0"/>
<stop offset="0.496209" stop-color="white"/>
<stop offset="1" stop-color="white" stop-opacity="0"/>
</linearGradient>
<linearGradient id="paint7_linear_164_12264" x1="42" y1="217" x2="42" y2="10" gradientUnits="userSpaceOnUse">
<stop stop-color="white" stop-opacity="0"/>
<stop offset="0.496209" stop-color="white"/>
<stop offset="1" stop-color="white" stop-opacity="0"/>
</linearGradient>
<linearGradient id="paint8_linear_164_12264" x1="237" y1="217" x2="237" y2="10" gradientUnits="userSpaceOnUse">
<stop stop-color="white" stop-opacity="0"/>
<stop offset="0.496209" stop-color="white"/>
<stop offset="1" stop-color="white" stop-opacity="0"/>
</linearGradient>
<linearGradient id="paint9_linear_164_12264" x1="139.924" y1="139" x2="139.924" y2="213.5" gradientUnits="userSpaceOnUse">
<stop stop-color="white"/>
<stop offset="1" stop-color="white" stop-opacity="0"/>
</linearGradient>
<linearGradient id="paint10_linear_164_12264" x1="139.924" y1="139" x2="139.924" y2="220.5" gradientUnits="userSpaceOnUse">
<stop stop-color="white"/>
<stop offset="1" stop-color="white" stop-opacity="0"/>
</linearGradient>
<linearGradient id="paint11_linear_164_12264" x1="139.924" y1="139" x2="139.924" y2="216.995" gradientUnits="userSpaceOnUse">
<stop stop-color="white"/>
<stop offset="1" stop-color="white" stop-opacity="0"/>
</linearGradient>
<linearGradient id="paint12_linear_164_12264" x1="139.924" y1="138" x2="139.924" y2="216.995" gradientUnits="userSpaceOnUse">
<stop stop-color="white"/>
<stop offset="1" stop-color="white" stop-opacity="0"/>
</linearGradient>
<linearGradient id="paint13_linear_164_12264" x1="91" y1="138.5" x2="91" y2="222" gradientUnits="userSpaceOnUse">
<stop stop-color="white"/>
<stop offset="1" stop-color="white" stop-opacity="0"/>
</linearGradient>
<clipPath id="clip0_164_12264">
<rect width="13.1982" height="13.1982" fill="white" transform="translate(52.8989 59.1497)"/>
</clipPath>
<clipPath id="clip1_164_12264">
<rect width="13.1982" height="13.1982" fill="white" transform="translate(52.8989 104.15)"/>
</clipPath>
<clipPath id="clip2_164_12264">
<rect width="13.1982" height="13.1982" fill="white" transform="translate(52.8989 149.15)"/>
</clipPath>
<clipPath id="clip3_164_12264">
<rect width="13.1982" height="13.1982" fill="white" transform="translate(52.8989 194.15)"/>
</clipPath>
</defs>
</svg>
