<svg width="586" height="251" viewBox="0 0 586 251" fill="none" xmlns="http://www.w3.org/2000/svg">
<mask id="mask0_164_12275" style="mask-type:alpha" maskUnits="userSpaceOnUse" x="0" y="0" width="586" height="251">
<rect width="586" height="251" rx="31" fill="#D9D9D9"/>
</mask>
<g mask="url(#mask0_164_12275)">
<path d="M67.2617 213.886C67.2617 207.9 70.8395 203.04 73.9379 198.171C79.0653 190.114 84.5612 182.721 91.2958 175.986C96.567 170.715 100.948 168.407 107.729 166.537C115.643 164.354 128.865 164.757 136.694 166.742C149.576 170.008 161.932 179.919 173.515 186.052C181.71 190.39 189.286 194.274 198.063 197.709C207.027 201.217 218.726 206.491 228.619 206.491C234.46 206.491 240.242 206.754 245.926 205.104C250.805 203.688 254.886 200.535 259.535 198.633C270.692 194.069 281.122 187.84 291.888 182.457C301.211 177.795 310.289 171.58 320.75 169.721C337.103 166.813 352.342 170.841 365.121 181.224C375.878 189.965 386.595 202.838 399.837 208.134C406.969 210.987 413.687 211.113 421.252 211.113C433.472 211.113 442.364 202.427 451.346 195.398C459.452 189.054 467.379 186.154 477.742 186.154C486.252 186.154 526.683 181.2 526.683 195.398" stroke="url(#paint0_linear_164_12275)" stroke-opacity="0.2"/>
<path d="M31 69C31 60.1634 38.1634 53 47 53H539C547.837 53 555 60.1634 555 69V216H31V69Z" fill="url(#paint1_linear_164_12275)" fill-opacity="0.1" stroke="url(#paint2_linear_164_12275)" stroke-opacity="0.2"/>
<path d="M31 87H84.1574C92.9939 87 100.157 79.8366 100.157 71V69C100.157 60.1634 107.321 53 116.157 53H272.567C281.403 53 288.567 60.1634 288.567 69V71C288.567 79.8366 295.73 87 304.567 87H555" stroke="white" stroke-opacity="0.2"/>
<circle cx="51" cy="70" r="5" fill="white" fill-opacity="0.1"/>
<circle cx="71" cy="70" r="5" fill="white" fill-opacity="0.1"/>
<circle cx="92" cy="70" r="5" fill="white" fill-opacity="0.1"/>
<g opacity="0.6">
<path d="M49.2578 119H55.2461V117.893H50.4883V109.136H49.2578V119Z" fill="white"/>
<path d="M57.0918 119H58.2812V111.631H57.0918V119ZM57.6934 110.209C57.9212 110.209 58.1149 110.129 58.2744 109.97C58.4339 109.806 58.5137 109.612 58.5137 109.389C58.5137 109.161 58.4339 108.967 58.2744 108.808C58.1149 108.648 57.9212 108.568 57.6934 108.568C57.4701 108.568 57.2764 108.648 57.1123 108.808C56.9528 108.967 56.873 109.161 56.873 109.389C56.873 109.612 56.9528 109.806 57.1123 109.97C57.2764 110.129 57.4701 110.209 57.6934 110.209Z" fill="white"/>
<path d="M60.5234 119H61.7129V114.639C61.7129 114.206 61.7904 113.834 61.9453 113.524C62.1048 113.215 62.3281 112.975 62.6152 112.807C62.9023 112.638 63.2419 112.554 63.6338 112.554C64.2217 112.554 64.6546 112.715 64.9326 113.039C65.2152 113.358 65.3564 113.85 65.3564 114.516V119H66.5459V114.229C66.5459 113.354 66.3226 112.681 65.876 112.212C65.4339 111.738 64.7982 111.501 63.9688 111.501C63.4264 111.501 62.9798 111.61 62.6289 111.829C62.278 112.043 62.0091 112.346 61.8223 112.738H61.7129V111.631H60.5234V119Z" fill="white"/>
<path d="M68.7676 119H69.957V108.705H68.7676V119ZM73.4092 119H74.9062L71.4062 114.632L70.5312 115.391L73.4092 119ZM69.8066 116.348L70.9072 115.288L71.1943 115.008L74.6943 111.631H73.252L70.0664 114.851H69.752L69.8066 116.348Z" fill="white"/>
<path d="M78.5566 119.13C79.1172 119.13 79.6185 119.036 80.0605 118.85C80.5072 118.663 80.8604 118.403 81.1201 118.07C81.3799 117.733 81.5098 117.346 81.5098 116.908V116.895C81.5098 116.366 81.3389 115.944 80.9971 115.63C80.6598 115.315 80.1449 115.074 79.4521 114.905L78.3174 114.632C78.0303 114.559 77.7956 114.475 77.6133 114.379C77.431 114.283 77.2965 114.172 77.21 114.044C77.1234 113.916 77.0801 113.771 77.0801 113.606V113.593C77.0801 113.374 77.1462 113.183 77.2783 113.019C77.4105 112.854 77.5905 112.727 77.8184 112.636C78.0462 112.54 78.306 112.492 78.5977 112.492C79.0443 112.492 79.4066 112.583 79.6846 112.766C79.9626 112.948 80.1403 113.185 80.2178 113.477H81.3867C81.332 113.076 81.1816 112.727 80.9355 112.431C80.694 112.134 80.3727 111.907 79.9717 111.747C79.5752 111.583 79.1195 111.501 78.6045 111.501C78.085 111.501 77.6178 111.594 77.2031 111.781C76.7884 111.968 76.4603 112.223 76.2188 112.547C75.9818 112.87 75.8633 113.237 75.8633 113.647V113.654C75.8633 114.005 75.9339 114.311 76.0752 114.57C76.2165 114.826 76.4352 115.042 76.7314 115.22C77.0277 115.393 77.4059 115.534 77.8662 115.644L79.0078 115.917C79.4635 116.026 79.7917 116.17 79.9922 116.348C80.1927 116.521 80.293 116.733 80.293 116.983V116.997C80.293 117.22 80.2201 117.419 80.0742 117.592C79.9284 117.76 79.7279 117.895 79.4727 117.995C79.222 118.091 78.9303 118.139 78.5977 118.139C78.1283 118.139 77.7477 118.045 77.4561 117.858C77.1644 117.672 76.9684 117.425 76.8682 117.12H75.6514C75.6969 117.526 75.8451 117.879 76.0957 118.18C76.3509 118.48 76.6882 118.715 77.1074 118.884C77.5267 119.048 78.0098 119.13 78.5566 119.13Z" fill="white"/>
<path d="M102.258 119H103.488V109.136H102.258V119Z" fill="white"/>
<path d="M105.854 119H107.043V114.639C107.043 114.206 107.12 113.834 107.275 113.524C107.435 113.215 107.658 112.975 107.945 112.807C108.232 112.638 108.572 112.554 108.964 112.554C109.552 112.554 109.985 112.715 110.263 113.039C110.545 113.358 110.687 113.85 110.687 114.516V119H111.876V114.229C111.876 113.354 111.653 112.681 111.206 112.212C110.764 111.738 110.128 111.501 109.299 111.501C108.757 111.501 108.31 111.61 107.959 111.829C107.608 112.043 107.339 112.346 107.152 112.738H107.043V111.631H105.854V119Z" fill="white"/>
<path d="M115.841 119H117.044L119.771 111.631H118.514L116.497 117.701H116.388L114.371 111.631H113.113L115.841 119Z" fill="white"/>
<path d="M124.099 119.13C124.8 119.13 125.404 118.977 125.91 118.672C126.416 118.362 126.806 117.922 127.079 117.353C127.357 116.783 127.496 116.106 127.496 115.322V115.309C127.496 114.52 127.357 113.841 127.079 113.271C126.806 112.702 126.416 112.264 125.91 111.959C125.404 111.654 124.8 111.501 124.099 111.501C123.401 111.501 122.798 111.654 122.287 111.959C121.781 112.264 121.389 112.702 121.111 113.271C120.838 113.841 120.701 114.52 120.701 115.309V115.322C120.701 116.106 120.838 116.783 121.111 117.353C121.389 117.922 121.781 118.362 122.287 118.672C122.798 118.977 123.401 119.13 124.099 119.13ZM124.099 118.077C123.634 118.077 123.24 117.968 122.916 117.749C122.592 117.53 122.344 117.216 122.171 116.806C122.002 116.396 121.918 115.901 121.918 115.322V115.309C121.918 114.725 122.002 114.229 122.171 113.818C122.344 113.408 122.592 113.096 122.916 112.882C123.24 112.663 123.634 112.554 124.099 112.554C124.563 112.554 124.958 112.663 125.281 112.882C125.605 113.096 125.851 113.408 126.02 113.818C126.193 114.229 126.279 114.725 126.279 115.309V115.322C126.279 115.901 126.193 116.396 126.02 116.806C125.851 117.216 125.605 117.53 125.281 117.749C124.958 117.968 124.563 118.077 124.099 118.077Z" fill="white"/>
<path d="M129.369 119H130.559V111.631H129.369V119ZM129.971 110.209C130.199 110.209 130.392 110.129 130.552 109.97C130.711 109.806 130.791 109.612 130.791 109.389C130.791 109.161 130.711 108.967 130.552 108.808C130.392 108.648 130.199 108.568 129.971 108.568C129.747 108.568 129.554 108.648 129.39 108.808C129.23 108.967 129.15 109.161 129.15 109.389C129.15 109.612 129.23 109.806 129.39 109.97C129.554 110.129 129.747 110.209 129.971 110.209Z" fill="white"/>
<path d="M135.815 119.13C136.408 119.13 136.914 119.032 137.333 118.836C137.752 118.64 138.09 118.371 138.345 118.029C138.6 117.683 138.778 117.289 138.878 116.847L138.892 116.771L137.716 116.778L137.702 116.819C137.565 117.229 137.34 117.542 137.025 117.756C136.711 117.97 136.305 118.077 135.809 118.077C135.371 118.077 134.991 117.963 134.667 117.735C134.343 117.507 134.093 117.186 133.915 116.771C133.737 116.352 133.648 115.86 133.648 115.295V115.281C133.648 114.725 133.735 114.244 133.908 113.839C134.086 113.429 134.337 113.112 134.66 112.889C134.984 112.665 135.367 112.554 135.809 112.554C136.337 112.554 136.763 112.681 137.087 112.937C137.41 113.192 137.618 113.502 137.709 113.866L137.716 113.887H138.898L138.892 113.846C138.819 113.408 138.652 113.014 138.393 112.663C138.133 112.308 137.786 112.025 137.354 111.815C136.921 111.606 136.406 111.501 135.809 111.501C135.12 111.501 134.523 111.658 134.018 111.973C133.512 112.283 133.12 112.72 132.842 113.285C132.568 113.85 132.432 114.516 132.432 115.281V115.295C132.432 116.074 132.571 116.751 132.849 117.325C133.127 117.899 133.519 118.344 134.024 118.658C134.53 118.973 135.127 119.13 135.815 119.13Z" fill="white"/>
<path d="M143.643 119.13C144.076 119.13 144.465 119.075 144.812 118.966C145.162 118.852 145.465 118.701 145.721 118.515C145.976 118.323 146.183 118.111 146.343 117.879C146.507 117.642 146.621 117.398 146.685 117.147L146.698 117.093H145.509L145.481 117.154C145.418 117.3 145.306 117.444 145.146 117.585C144.987 117.726 144.784 117.842 144.538 117.934C144.292 118.025 144.003 118.07 143.67 118.07C143.223 118.07 142.836 117.972 142.508 117.776C142.18 117.576 141.927 117.291 141.749 116.922C141.571 116.548 141.482 116.099 141.482 115.575V115.104C141.482 114.552 141.574 114.087 141.756 113.709C141.938 113.331 142.184 113.046 142.494 112.854C142.809 112.659 143.164 112.561 143.561 112.561C143.957 112.561 144.308 112.654 144.613 112.841C144.919 113.023 145.158 113.301 145.331 113.675C145.504 114.049 145.591 114.525 145.591 115.104V115.575L146.179 114.707H140.881V115.657H146.787V115.192C146.787 114.459 146.657 113.816 146.397 113.265C146.142 112.709 145.773 112.276 145.29 111.966C144.812 111.656 144.237 111.501 143.567 111.501C142.902 111.501 142.321 111.663 141.824 111.986C141.327 112.31 140.942 112.759 140.669 113.333C140.4 113.907 140.266 114.575 140.266 115.336V115.343C140.266 116.113 140.4 116.783 140.669 117.353C140.942 117.918 141.33 118.355 141.831 118.665C142.337 118.975 142.941 119.13 143.643 119.13Z" fill="white"/>
<path d="M173.229 119.232C173.931 119.232 174.56 119.109 175.116 118.863C175.677 118.617 176.139 118.273 176.504 117.831C176.868 117.384 177.105 116.86 177.215 116.259V116.245H175.971L175.957 116.259C175.857 116.637 175.679 116.965 175.424 117.243C175.169 117.517 174.854 117.729 174.48 117.879C174.107 118.025 173.69 118.098 173.229 118.098C172.596 118.098 172.047 117.934 171.582 117.605C171.122 117.277 170.766 116.812 170.516 116.211C170.265 115.609 170.14 114.898 170.14 114.078V114.064C170.14 113.24 170.265 112.526 170.516 111.925C170.766 111.323 171.122 110.858 171.582 110.53C172.047 110.202 172.594 110.038 173.223 110.038C173.678 110.038 174.091 110.122 174.46 110.291C174.834 110.46 175.15 110.699 175.41 111.009C175.67 111.314 175.854 111.679 175.964 112.103L175.971 112.116H177.208L177.215 112.103C177.119 111.474 176.887 110.92 176.518 110.441C176.148 109.958 175.679 109.582 175.109 109.313C174.544 109.04 173.915 108.903 173.223 108.903C172.329 108.903 171.557 109.113 170.905 109.532C170.258 109.951 169.757 110.546 169.401 111.316C169.05 112.087 168.875 113.003 168.875 114.064V114.078C168.875 115.135 169.05 116.049 169.401 116.819C169.757 117.59 170.26 118.184 170.912 118.604C171.564 119.023 172.336 119.232 173.229 119.232Z" fill="white"/>
<path d="M179.197 119H180.387V114.639C180.387 114.206 180.464 113.834 180.619 113.524C180.779 113.215 181.002 112.975 181.289 112.807C181.576 112.638 181.916 112.554 182.308 112.554C182.896 112.554 183.328 112.715 183.606 113.039C183.889 113.358 184.03 113.85 184.03 114.516V119H185.22V114.229C185.22 113.645 185.119 113.151 184.919 112.745C184.718 112.34 184.427 112.032 184.044 111.822C183.661 111.608 183.194 111.501 182.643 111.501C182.1 111.501 181.654 111.61 181.303 111.829C180.952 112.043 180.683 112.346 180.496 112.738H180.387V108.705H179.197V119Z" fill="white"/>
<path d="M190.381 119.13C190.814 119.13 191.203 119.075 191.55 118.966C191.901 118.852 192.204 118.701 192.459 118.515C192.714 118.323 192.922 118.111 193.081 117.879C193.245 117.642 193.359 117.398 193.423 117.147L193.437 117.093H192.247L192.22 117.154C192.156 117.3 192.044 117.444 191.885 117.585C191.725 117.726 191.522 117.842 191.276 117.934C191.03 118.025 190.741 118.07 190.408 118.07C189.962 118.07 189.574 117.972 189.246 117.776C188.918 117.576 188.665 117.291 188.487 116.922C188.31 116.548 188.221 116.099 188.221 115.575V115.104C188.221 114.552 188.312 114.087 188.494 113.709C188.676 113.331 188.923 113.046 189.232 112.854C189.547 112.659 189.902 112.561 190.299 112.561C190.695 112.561 191.046 112.654 191.352 112.841C191.657 113.023 191.896 113.301 192.069 113.675C192.243 114.049 192.329 114.525 192.329 115.104V115.575L192.917 114.707H187.619V115.657H193.525V115.192C193.525 114.459 193.396 113.816 193.136 113.265C192.881 112.709 192.511 112.276 192.028 111.966C191.55 111.656 190.976 111.501 190.306 111.501C189.64 111.501 189.059 111.663 188.562 111.986C188.066 112.31 187.681 112.759 187.407 113.333C187.138 113.907 187.004 114.575 187.004 115.336V115.343C187.004 116.113 187.138 116.783 187.407 117.353C187.681 117.918 188.068 118.355 188.569 118.665C189.075 118.975 189.679 119.13 190.381 119.13Z" fill="white"/>
<path d="M198.386 119.13C198.978 119.13 199.484 119.032 199.903 118.836C200.323 118.64 200.66 118.371 200.915 118.029C201.17 117.683 201.348 117.289 201.448 116.847L201.462 116.771L200.286 116.778L200.272 116.819C200.136 117.229 199.91 117.542 199.596 117.756C199.281 117.97 198.876 118.077 198.379 118.077C197.941 118.077 197.561 117.963 197.237 117.735C196.914 117.507 196.663 117.186 196.485 116.771C196.308 116.352 196.219 115.86 196.219 115.295V115.281C196.219 114.725 196.305 114.244 196.479 113.839C196.656 113.429 196.907 113.112 197.23 112.889C197.554 112.665 197.937 112.554 198.379 112.554C198.908 112.554 199.334 112.681 199.657 112.937C199.981 113.192 200.188 113.502 200.279 113.866L200.286 113.887H201.469L201.462 113.846C201.389 113.408 201.223 113.014 200.963 112.663C200.703 112.308 200.357 112.025 199.924 111.815C199.491 111.606 198.976 111.501 198.379 111.501C197.691 111.501 197.094 111.658 196.588 111.973C196.082 112.283 195.69 112.72 195.412 113.285C195.139 113.85 195.002 114.516 195.002 115.281V115.295C195.002 116.074 195.141 116.751 195.419 117.325C195.697 117.899 196.089 118.344 196.595 118.658C197.101 118.973 197.698 119.13 198.386 119.13Z" fill="white"/>
<path d="M203.273 119H204.463V108.705H203.273V119ZM207.915 119H209.412L205.912 114.632L205.037 115.391L207.915 119ZM204.312 116.348L205.413 115.288L205.7 115.008L209.2 111.631H207.758L204.572 114.851H204.258L204.312 116.348Z" fill="white"/>
<path d="M213.493 119.13C214.195 119.13 214.799 118.977 215.305 118.672C215.811 118.362 216.2 117.922 216.474 117.353C216.752 116.783 216.891 116.106 216.891 115.322V115.309C216.891 114.52 216.752 113.841 216.474 113.271C216.2 112.702 215.811 112.264 215.305 111.959C214.799 111.654 214.195 111.501 213.493 111.501C212.796 111.501 212.192 111.654 211.682 111.959C211.176 112.264 210.784 112.702 210.506 113.271C210.232 113.841 210.096 114.52 210.096 115.309V115.322C210.096 116.106 210.232 116.783 210.506 117.353C210.784 117.922 211.176 118.362 211.682 118.672C212.192 118.977 212.796 119.13 213.493 119.13ZM213.493 118.077C213.028 118.077 212.634 117.968 212.311 117.749C211.987 117.53 211.739 117.216 211.565 116.806C211.397 116.396 211.312 115.901 211.312 115.322V115.309C211.312 114.725 211.397 114.229 211.565 113.818C211.739 113.408 211.987 113.096 212.311 112.882C212.634 112.663 213.028 112.554 213.493 112.554C213.958 112.554 214.352 112.663 214.676 112.882C214.999 113.096 215.245 113.408 215.414 113.818C215.587 114.229 215.674 114.725 215.674 115.309V115.322C215.674 115.901 215.587 116.396 215.414 116.806C215.245 117.216 214.999 117.53 214.676 117.749C214.352 117.968 213.958 118.077 213.493 118.077Z" fill="white"/>
<path d="M221.204 119.13C221.564 119.13 221.885 119.082 222.168 118.986C222.455 118.891 222.701 118.752 222.906 118.569C223.111 118.382 223.273 118.159 223.392 117.899H223.501V119H224.69V111.631H223.501V115.992C223.501 116.316 223.458 116.607 223.371 116.867C223.289 117.122 223.164 117.341 222.995 117.523C222.826 117.701 222.617 117.838 222.366 117.934C222.12 118.029 221.835 118.077 221.512 118.077C220.924 118.077 220.5 117.915 220.24 117.592C219.985 117.268 219.857 116.776 219.857 116.115V111.631H218.668V116.402C218.668 116.981 218.761 117.476 218.948 117.886C219.14 118.291 219.424 118.601 219.803 118.815C220.181 119.025 220.648 119.13 221.204 119.13Z" fill="white"/>
<path d="M229.53 119.055C229.649 119.055 229.765 119.048 229.879 119.034C229.993 119.021 230.107 119.005 230.221 118.986V117.975C230.111 117.984 230.018 117.991 229.94 117.995C229.868 118 229.779 118.002 229.674 118.002C229.291 118.002 229.018 117.909 228.854 117.722C228.689 117.53 228.607 117.218 228.607 116.785V112.615H230.221V111.631H228.607V109.724H227.377V111.631H226.215V112.615H227.377V117.086C227.377 117.788 227.546 118.291 227.883 118.597C228.225 118.902 228.774 119.055 229.53 119.055Z" fill="white"/>
</g>
<path opacity="0.6" d="M257.078 119.068C257.324 119.068 257.534 118.982 257.707 118.809C257.88 118.631 257.967 118.421 257.967 118.18C257.967 117.934 257.88 117.724 257.707 117.551C257.534 117.378 257.324 117.291 257.078 117.291C256.837 117.291 256.627 117.378 256.449 117.551C256.276 117.724 256.189 117.934 256.189 118.18C256.189 118.421 256.276 118.631 256.449 118.809C256.627 118.982 256.837 119.068 257.078 119.068ZM261.234 119.068C261.48 119.068 261.69 118.982 261.863 118.809C262.036 118.631 262.123 118.421 262.123 118.18C262.123 117.934 262.036 117.724 261.863 117.551C261.69 117.378 261.48 117.291 261.234 117.291C260.993 117.291 260.783 117.378 260.605 117.551C260.432 117.724 260.346 117.934 260.346 118.18C260.346 118.421 260.432 118.631 260.605 118.809C260.783 118.982 260.993 119.068 261.234 119.068ZM265.391 119.068C265.637 119.068 265.846 118.982 266.02 118.809C266.193 118.631 266.279 118.421 266.279 118.18C266.279 117.934 266.193 117.724 266.02 117.551C265.846 117.378 265.637 117.291 265.391 117.291C265.149 117.291 264.939 117.378 264.762 117.551C264.589 117.724 264.502 117.934 264.502 118.18C264.502 118.421 264.589 118.631 264.762 118.809C264.939 118.982 265.149 119.068 265.391 119.068Z" fill="white"/>
<circle cx="435.5" cy="86.5" r="69.5" fill="white" fill-opacity="0.03"/>
<circle cx="435.5" cy="86.5" r="54" fill="white" fill-opacity="0.1" stroke="#CB9673"/>
<g filter="url(#filter0_d_164_12275)">
<path d="M422.211 89.9866H429.421V106.787C429.421 110.707 431.544 111.5 434.134 108.56L451.797 88.4933C453.967 86.0433 453.057 84.0133 449.767 84.0133H442.557V67.2133C442.557 63.2933 440.434 62.4999 437.844 65.4399L420.181 85.5066C418.034 87.9799 418.944 89.9866 422.211 89.9866Z" fill="#D9D9D9"/>
</g>
<path d="M49 140.5H438" stroke="url(#paint3_linear_164_12275)" stroke-opacity="0.2"/>
</g>
<defs>
<filter id="filter0_d_164_12275" x="389.018" y="33.6646" width="93.959" height="106.671" filterUnits="userSpaceOnUse" color-interpolation-filters="sRGB">
<feFlood flood-opacity="0" result="BackgroundImageFix"/>
<feColorMatrix in="SourceAlpha" type="matrix" values="0 0 0 0 0 0 0 0 0 0 0 0 0 0 0 0 0 0 127 0" result="hardAlpha"/>
<feOffset/>
<feGaussianBlur stdDeviation="15"/>
<feComposite in2="hardAlpha" operator="out"/>
<feColorMatrix type="matrix" values="0 0 0 0 1 0 0 0 0 1 0 0 0 0 1 0 0 0 0.35 0"/>
<feBlend mode="normal" in2="BackgroundImageFix" result="effect1_dropShadow_164_12275"/>
<feBlend mode="normal" in="SourceGraphic" in2="effect1_dropShadow_164_12275" result="shape"/>
</filter>
<linearGradient id="paint0_linear_164_12275" x1="253.993" y1="174.538" x2="253.991" y2="207" gradientUnits="userSpaceOnUse">
<stop stop-color="white"/>
<stop offset="1" stop-color="white" stop-opacity="0"/>
</linearGradient>
<linearGradient id="paint1_linear_164_12275" x1="293" y1="53" x2="293" y2="216" gradientUnits="userSpaceOnUse">
<stop stop-color="white"/>
<stop offset="1" stop-color="white" stop-opacity="0"/>
</linearGradient>
<linearGradient id="paint2_linear_164_12275" x1="293" y1="53" x2="293" y2="216" gradientUnits="userSpaceOnUse">
<stop stop-color="white"/>
<stop offset="1" stop-color="white" stop-opacity="0"/>
</linearGradient>
<linearGradient id="paint3_linear_164_12275" x1="49" y1="141.001" x2="438" y2="141" gradientUnits="userSpaceOnUse">
<stop stop-color="white"/>
<stop offset="1" stop-color="white" stop-opacity="0"/>
</linearGradient>
</defs>
</svg>
